<mxfile host="app.diagrams.net" modified="2023-12-06T11:37:09.019Z" agent="Mozilla/5.0 (Windows NT 10.0; Win64; x64) AppleWebKit/537.36 (KHTML, like Gecko) Chrome/119.0.0.0 Safari/537.36" etag="JNB6ov9-_9OPPfC2w_NC" version="22.1.5" type="device">
  <diagram name="Página-1" id="HAZqSYYuUM7XI81nttOZ">
    <mxGraphModel dx="3497" dy="763" grid="1" gridSize="10" guides="1" tooltips="1" connect="1" arrows="1" fold="1" page="1" pageScale="1" pageWidth="827" pageHeight="1169" math="0" shadow="0">
      <root>
        <mxCell id="0" />
        <mxCell id="1" parent="0" />
        <mxCell id="xE5BTWYlB8bozgJy7pTg-1" value="&lt;font size=&quot;1&quot; style=&quot;&quot;&gt;&lt;b style=&quot;font-size: 20px;&quot;&gt;Relaciones Ternarias:&lt;/b&gt;&lt;/font&gt;" style="text;strokeColor=none;fillColor=none;align=left;verticalAlign=middle;spacingLeft=4;spacingRight=4;overflow=hidden;points=[[0,0.5],[1,0.5]];portConstraint=eastwest;rotatable=0;whiteSpace=wrap;html=1;" parent="1" vertex="1">
          <mxGeometry x="60" y="10" width="230" height="30" as="geometry" />
        </mxCell>
        <mxCell id="xE5BTWYlB8bozgJy7pTg-2" value="&lt;font style=&quot;font-size: 20px;&quot;&gt;&lt;b&gt;A&lt;/b&gt;&lt;/font&gt;" style="rounded=0;whiteSpace=wrap;html=1;fillColor=#d5e8d4;strokeColor=#82b366;" parent="1" vertex="1">
          <mxGeometry x="60" y="85" width="50" height="50" as="geometry" />
        </mxCell>
        <mxCell id="xE5BTWYlB8bozgJy7pTg-3" value="&lt;span style=&quot;font-size: 20px;&quot;&gt;&lt;b&gt;B&lt;/b&gt;&lt;/span&gt;" style="rounded=0;whiteSpace=wrap;html=1;fillColor=#f8cecc;strokeColor=#b85450;" parent="1" vertex="1">
          <mxGeometry x="250" y="85" width="50" height="50" as="geometry" />
        </mxCell>
        <mxCell id="xE5BTWYlB8bozgJy7pTg-4" value="&lt;font style=&quot;font-size: 20px;&quot;&gt;&lt;b&gt;R&lt;/b&gt;&lt;/font&gt;" style="shape=rhombus;perimeter=rhombusPerimeter;whiteSpace=wrap;html=1;align=center;fillColor=#f5f5f5;strokeColor=#666666;fontColor=#333333;" parent="1" vertex="1">
          <mxGeometry x="150" y="80" width="70" height="60" as="geometry" />
        </mxCell>
        <mxCell id="xE5BTWYlB8bozgJy7pTg-5" value="" style="endArrow=none;html=1;rounded=0;exitX=1;exitY=0.5;exitDx=0;exitDy=0;entryX=0;entryY=0.5;entryDx=0;entryDy=0;" parent="1" source="xE5BTWYlB8bozgJy7pTg-4" target="xE5BTWYlB8bozgJy7pTg-3" edge="1">
          <mxGeometry relative="1" as="geometry">
            <mxPoint x="330" y="305" as="sourcePoint" />
            <mxPoint x="490" y="305" as="targetPoint" />
          </mxGeometry>
        </mxCell>
        <mxCell id="xE5BTWYlB8bozgJy7pTg-6" value="N" style="resizable=0;html=1;whiteSpace=wrap;align=right;verticalAlign=bottom;" parent="xE5BTWYlB8bozgJy7pTg-5" connectable="0" vertex="1">
          <mxGeometry x="1" relative="1" as="geometry" />
        </mxCell>
        <mxCell id="xE5BTWYlB8bozgJy7pTg-7" value="" style="endArrow=none;html=1;rounded=0;exitX=1;exitY=0.5;exitDx=0;exitDy=0;entryX=0;entryY=0.5;entryDx=0;entryDy=0;" parent="1" source="xE5BTWYlB8bozgJy7pTg-2" target="xE5BTWYlB8bozgJy7pTg-4" edge="1">
          <mxGeometry relative="1" as="geometry">
            <mxPoint x="230" y="120" as="sourcePoint" />
            <mxPoint x="260" y="120" as="targetPoint" />
          </mxGeometry>
        </mxCell>
        <mxCell id="xE5BTWYlB8bozgJy7pTg-8" value="N" style="resizable=0;html=1;whiteSpace=wrap;align=right;verticalAlign=bottom;" parent="xE5BTWYlB8bozgJy7pTg-7" connectable="0" vertex="1">
          <mxGeometry x="1" relative="1" as="geometry" />
        </mxCell>
        <mxCell id="xE5BTWYlB8bozgJy7pTg-9" value="&lt;b style=&quot;border-color: var(--border-color); font-size: 14px;&quot;&gt;&lt;font color=&quot;#9933ff&quot;&gt;&lt;b style=&quot;border-color: var(--border-color);&quot;&gt;A = &lt;u&gt;a0&lt;/u&gt; + ...&lt;br&gt;&lt;/b&gt;B = &lt;u&gt;b0&lt;/u&gt; + ...&lt;br&gt;C = &lt;u&gt;c0&lt;/u&gt; + ...&lt;br&gt;&lt;/font&gt;&lt;/b&gt;&lt;span style=&quot;font-size: 14px;&quot;&gt;&lt;b&gt;&lt;font color=&quot;#9933ff&quot;&gt;R = &lt;u&gt;a0+b0+c0&lt;/u&gt; + ...&lt;br&gt;&lt;span style=&quot;white-space: pre;&quot;&gt;&#x9;&lt;/span&gt;C.Aj: a0, b0, c0&lt;/font&gt;&lt;br&gt;&lt;/b&gt;&lt;/span&gt;" style="text;strokeColor=none;fillColor=none;align=left;verticalAlign=middle;spacingLeft=4;spacingRight=4;overflow=hidden;points=[[0,0.5],[1,0.5]];portConstraint=eastwest;rotatable=0;whiteSpace=wrap;html=1;" parent="1" vertex="1">
          <mxGeometry x="61" y="242" width="169" height="89" as="geometry" />
        </mxCell>
        <mxCell id="xE5BTWYlB8bozgJy7pTg-10" value="&lt;font style=&quot;font-size: 20px;&quot;&gt;&lt;b&gt;A&lt;/b&gt;&lt;/font&gt;" style="rounded=0;whiteSpace=wrap;html=1;fillColor=#d5e8d4;strokeColor=#82b366;" parent="1" vertex="1">
          <mxGeometry x="390" y="90" width="50" height="50" as="geometry" />
        </mxCell>
        <mxCell id="xE5BTWYlB8bozgJy7pTg-11" value="&lt;span style=&quot;font-size: 20px;&quot;&gt;&lt;b&gt;B&lt;/b&gt;&lt;/span&gt;" style="rounded=0;whiteSpace=wrap;html=1;fillColor=#f8cecc;strokeColor=#b85450;" parent="1" vertex="1">
          <mxGeometry x="580" y="90" width="50" height="50" as="geometry" />
        </mxCell>
        <mxCell id="xE5BTWYlB8bozgJy7pTg-12" value="&lt;font style=&quot;font-size: 20px;&quot;&gt;&lt;b&gt;R&lt;/b&gt;&lt;/font&gt;" style="shape=rhombus;perimeter=rhombusPerimeter;whiteSpace=wrap;html=1;align=center;fillColor=#f5f5f5;strokeColor=#666666;fontColor=#333333;" parent="1" vertex="1">
          <mxGeometry x="480" y="85" width="70" height="60" as="geometry" />
        </mxCell>
        <mxCell id="xE5BTWYlB8bozgJy7pTg-13" value="&lt;font color=&quot;#9933ff&quot; style=&quot;font-size: 14px;&quot;&gt;&lt;b&gt;&lt;font style=&quot;font-size: 14px;&quot;&gt;&lt;span style=&quot;border-color: var(--border-color);&quot;&gt;&lt;span style=&quot;border-color: var(--border-color);&quot;&gt;A = &lt;u style=&quot;&quot;&gt;a0&lt;/u&gt; + ...&lt;br&gt;&lt;/span&gt;B = &lt;u style=&quot;&quot;&gt;b0&lt;/u&gt; + ...&lt;br&gt;C = &lt;u&gt;c0&lt;/u&gt; +...&lt;br&gt;&lt;/span&gt;R = &lt;u&gt;a0+b0+c0&lt;/u&gt; + ...&lt;br&gt;&lt;span style=&quot;&quot;&gt;&lt;span style=&quot;white-space: pre;&quot;&gt;&amp;nbsp;&amp;nbsp;&amp;nbsp;&amp;nbsp;&lt;/span&gt;&lt;/span&gt;C.Aj: a0, b0,c0&lt;br&gt;&lt;span style=&quot;line-height: 107%;&quot;&gt;ASERCIÓN 1:&lt;/span&gt;&lt;span style=&quot;font-family: Arial, sans-serif;&quot;&gt;&amp;nbsp;A&amp;nbsp;&lt;/span&gt;&lt;span style=&quot;font-family: &amp;quot;Cambria Math&amp;quot;, serif;&quot;&gt;⊆&lt;/span&gt;&lt;span style=&quot;line-height: 107%;&quot;&gt;&amp;nbsp;R&lt;br&gt;&lt;/span&gt;&lt;/font&gt;ASERCIÓN 2:&lt;span style=&quot;border-color: var(--border-color); font-family: Arial, sans-serif;&quot;&gt;&amp;nbsp;B&amp;nbsp;&lt;/span&gt;&lt;span style=&quot;border-color: var(--border-color); font-family: &amp;quot;Cambria Math&amp;quot;, serif;&quot;&gt;⊆&lt;/span&gt;&lt;span style=&quot;border-color: var(--border-color); line-height: 16.05px;&quot;&gt;&amp;nbsp;R&lt;br&gt;&lt;/span&gt;&lt;/b&gt;&lt;/font&gt;&lt;b style=&quot;border-color: var(--border-color); color: rgb(153, 51, 255); font-size: 14px;&quot;&gt;ASERCIÓN 3: C&amp;nbsp;&lt;span style=&quot;border-color: var(--border-color); font-family: &amp;quot;Cambria Math&amp;quot;, serif;&quot;&gt;⊆&lt;/span&gt;&lt;span style=&quot;border-color: var(--border-color); line-height: 16.05px;&quot;&gt;&amp;nbsp;R&lt;/span&gt;&lt;/b&gt;&lt;span style=&quot;font-size: 14px;&quot;&gt;&lt;b&gt;&lt;br&gt;&lt;/b&gt;&lt;/span&gt;" style="text;strokeColor=none;fillColor=none;align=left;verticalAlign=middle;spacingLeft=4;spacingRight=4;overflow=hidden;points=[[0,0.5],[1,0.5]];portConstraint=eastwest;rotatable=0;whiteSpace=wrap;html=1;" parent="1" vertex="1">
          <mxGeometry x="391" y="240" width="159" height="140" as="geometry" />
        </mxCell>
        <mxCell id="xE5BTWYlB8bozgJy7pTg-14" value="" style="shape=link;html=1;rounded=0;exitX=1;exitY=0.5;exitDx=0;exitDy=0;" parent="1" source="xE5BTWYlB8bozgJy7pTg-10" target="xE5BTWYlB8bozgJy7pTg-12" edge="1">
          <mxGeometry relative="1" as="geometry">
            <mxPoint x="330" y="305" as="sourcePoint" />
            <mxPoint x="490" y="305" as="targetPoint" />
          </mxGeometry>
        </mxCell>
        <mxCell id="xE5BTWYlB8bozgJy7pTg-15" value="N" style="resizable=0;html=1;whiteSpace=wrap;align=right;verticalAlign=bottom;" parent="xE5BTWYlB8bozgJy7pTg-14" connectable="0" vertex="1">
          <mxGeometry x="1" relative="1" as="geometry" />
        </mxCell>
        <mxCell id="xE5BTWYlB8bozgJy7pTg-16" value="" style="shape=link;html=1;rounded=0;exitX=1;exitY=0.5;exitDx=0;exitDy=0;entryX=0;entryY=0.5;entryDx=0;entryDy=0;" parent="1" source="xE5BTWYlB8bozgJy7pTg-12" target="xE5BTWYlB8bozgJy7pTg-11" edge="1">
          <mxGeometry relative="1" as="geometry">
            <mxPoint x="450" y="125" as="sourcePoint" />
            <mxPoint x="490" y="125" as="targetPoint" />
          </mxGeometry>
        </mxCell>
        <mxCell id="xE5BTWYlB8bozgJy7pTg-17" value="N" style="resizable=0;html=1;whiteSpace=wrap;align=right;verticalAlign=bottom;" parent="xE5BTWYlB8bozgJy7pTg-16" connectable="0" vertex="1">
          <mxGeometry x="1" relative="1" as="geometry" />
        </mxCell>
        <mxCell id="xE5BTWYlB8bozgJy7pTg-18" value="&lt;span style=&quot;font-size: 20px;&quot;&gt;&lt;b&gt;C&lt;/b&gt;&lt;/span&gt;" style="rounded=0;whiteSpace=wrap;html=1;fillColor=#fff2cc;strokeColor=#d6b656;" parent="1" vertex="1">
          <mxGeometry x="160" y="180" width="50" height="50" as="geometry" />
        </mxCell>
        <mxCell id="xE5BTWYlB8bozgJy7pTg-21" value="" style="endArrow=none;html=1;rounded=0;exitX=0.5;exitY=1;exitDx=0;exitDy=0;entryX=0.5;entryY=0;entryDx=0;entryDy=0;" parent="1" source="xE5BTWYlB8bozgJy7pTg-4" target="xE5BTWYlB8bozgJy7pTg-18" edge="1">
          <mxGeometry relative="1" as="geometry">
            <mxPoint x="230" y="120" as="sourcePoint" />
            <mxPoint x="260" y="120" as="targetPoint" />
          </mxGeometry>
        </mxCell>
        <mxCell id="xE5BTWYlB8bozgJy7pTg-22" value="N" style="resizable=0;html=1;whiteSpace=wrap;align=right;verticalAlign=bottom;" parent="xE5BTWYlB8bozgJy7pTg-21" connectable="0" vertex="1">
          <mxGeometry x="1" relative="1" as="geometry" />
        </mxCell>
        <mxCell id="xE5BTWYlB8bozgJy7pTg-23" value="&lt;span style=&quot;font-size: 20px;&quot;&gt;&lt;b&gt;C&lt;/b&gt;&lt;/span&gt;" style="rounded=0;whiteSpace=wrap;html=1;fillColor=#fff2cc;strokeColor=#d6b656;" parent="1" vertex="1">
          <mxGeometry x="490" y="180" width="50" height="50" as="geometry" />
        </mxCell>
        <mxCell id="xE5BTWYlB8bozgJy7pTg-24" value="" style="shape=link;html=1;rounded=0;exitX=0.5;exitY=1;exitDx=0;exitDy=0;entryX=0.5;entryY=0;entryDx=0;entryDy=0;" parent="1" source="xE5BTWYlB8bozgJy7pTg-12" target="xE5BTWYlB8bozgJy7pTg-23" edge="1">
          <mxGeometry relative="1" as="geometry">
            <mxPoint x="560" y="125" as="sourcePoint" />
            <mxPoint x="590" y="125" as="targetPoint" />
          </mxGeometry>
        </mxCell>
        <mxCell id="xE5BTWYlB8bozgJy7pTg-25" value="N" style="resizable=0;html=1;whiteSpace=wrap;align=right;verticalAlign=bottom;" parent="xE5BTWYlB8bozgJy7pTg-24" connectable="0" vertex="1">
          <mxGeometry x="1" relative="1" as="geometry" />
        </mxCell>
        <mxCell id="xE5BTWYlB8bozgJy7pTg-26" value="&lt;font color=&quot;#ff3333&quot;&gt;&lt;b&gt;Tantas aserciones como cardinalidades mínimas1.&lt;/b&gt;&lt;/font&gt;" style="text;strokeColor=none;fillColor=none;align=left;verticalAlign=middle;spacingLeft=4;spacingRight=4;overflow=hidden;points=[[0,0.5],[1,0.5]];portConstraint=eastwest;rotatable=0;whiteSpace=wrap;html=1;" parent="1" vertex="1">
          <mxGeometry x="550" y="331" width="170" height="40" as="geometry" />
        </mxCell>
        <mxCell id="xE5BTWYlB8bozgJy7pTg-27" value="&lt;font style=&quot;font-size: 20px;&quot;&gt;&lt;b&gt;A&lt;/b&gt;&lt;/font&gt;" style="rounded=0;whiteSpace=wrap;html=1;fillColor=#d5e8d4;strokeColor=#82b366;" parent="1" vertex="1">
          <mxGeometry x="60" y="414" width="50" height="50" as="geometry" />
        </mxCell>
        <mxCell id="xE5BTWYlB8bozgJy7pTg-28" value="&lt;span style=&quot;font-size: 20px;&quot;&gt;&lt;b&gt;B&lt;/b&gt;&lt;/span&gt;" style="rounded=0;whiteSpace=wrap;html=1;fillColor=#f8cecc;strokeColor=#b85450;" parent="1" vertex="1">
          <mxGeometry x="250" y="414" width="50" height="50" as="geometry" />
        </mxCell>
        <mxCell id="xE5BTWYlB8bozgJy7pTg-29" value="&lt;font style=&quot;font-size: 20px;&quot;&gt;&lt;b&gt;R&lt;/b&gt;&lt;/font&gt;" style="shape=rhombus;perimeter=rhombusPerimeter;whiteSpace=wrap;html=1;align=center;fillColor=#f5f5f5;strokeColor=#666666;fontColor=#333333;" parent="1" vertex="1">
          <mxGeometry x="150" y="409" width="70" height="60" as="geometry" />
        </mxCell>
        <mxCell id="xE5BTWYlB8bozgJy7pTg-30" value="" style="endArrow=none;html=1;rounded=0;exitX=1;exitY=0.5;exitDx=0;exitDy=0;entryX=0;entryY=0.5;entryDx=0;entryDy=0;" parent="1" source="xE5BTWYlB8bozgJy7pTg-29" target="xE5BTWYlB8bozgJy7pTg-28" edge="1">
          <mxGeometry relative="1" as="geometry">
            <mxPoint x="330" y="634" as="sourcePoint" />
            <mxPoint x="490" y="634" as="targetPoint" />
          </mxGeometry>
        </mxCell>
        <mxCell id="xE5BTWYlB8bozgJy7pTg-31" value="N" style="resizable=0;html=1;whiteSpace=wrap;align=right;verticalAlign=bottom;" parent="xE5BTWYlB8bozgJy7pTg-30" connectable="0" vertex="1">
          <mxGeometry x="1" relative="1" as="geometry" />
        </mxCell>
        <mxCell id="xE5BTWYlB8bozgJy7pTg-32" value="" style="endArrow=none;html=1;rounded=0;exitX=1;exitY=0.5;exitDx=0;exitDy=0;entryX=0;entryY=0.5;entryDx=0;entryDy=0;" parent="1" source="xE5BTWYlB8bozgJy7pTg-27" target="xE5BTWYlB8bozgJy7pTg-29" edge="1">
          <mxGeometry relative="1" as="geometry">
            <mxPoint x="230" y="449" as="sourcePoint" />
            <mxPoint x="260" y="449" as="targetPoint" />
          </mxGeometry>
        </mxCell>
        <mxCell id="xE5BTWYlB8bozgJy7pTg-33" value="N" style="resizable=0;html=1;whiteSpace=wrap;align=right;verticalAlign=bottom;" parent="xE5BTWYlB8bozgJy7pTg-32" connectable="0" vertex="1">
          <mxGeometry x="1" relative="1" as="geometry" />
        </mxCell>
        <mxCell id="xE5BTWYlB8bozgJy7pTg-34" value="&lt;span style=&quot;border-color: var(--border-color); font-size: 14px;&quot;&gt;&lt;font style=&quot;&quot; color=&quot;#9933ff&quot;&gt;&lt;b&gt;&lt;span style=&quot;border-color: var(--border-color);&quot;&gt;A = &lt;u style=&quot;&quot;&gt;a0&lt;/u&gt; + ...&lt;br&gt;&lt;/span&gt;B = &lt;u style=&quot;&quot;&gt;b0&lt;/u&gt; + ...&lt;br&gt;C = &lt;u style=&quot;&quot;&gt;c0&lt;/u&gt; + ...&lt;br&gt;&lt;/b&gt;&lt;/font&gt;&lt;/span&gt;&lt;span style=&quot;font-size: 14px;&quot;&gt;&lt;font style=&quot;&quot; color=&quot;#9933ff&quot;&gt;&lt;b&gt;R = &lt;u style=&quot;&quot;&gt;a0+b0&lt;/u&gt; + c0 + ...&lt;br&gt;&lt;span style=&quot;white-space: pre;&quot;&gt;&#x9;&lt;/span&gt;C.Aj: a0, b0, c0&lt;br&gt;&lt;span style=&quot;white-space: pre;&quot;&gt;&#x9;&lt;/span&gt;NotNull: c0&lt;/b&gt;&lt;/font&gt;&lt;br&gt;&lt;/span&gt;" style="text;strokeColor=none;fillColor=none;align=left;verticalAlign=middle;spacingLeft=4;spacingRight=4;overflow=hidden;points=[[0,0.5],[1,0.5]];portConstraint=eastwest;rotatable=0;whiteSpace=wrap;html=1;" parent="1" vertex="1">
          <mxGeometry x="61" y="562" width="169" height="119" as="geometry" />
        </mxCell>
        <mxCell id="xE5BTWYlB8bozgJy7pTg-35" value="&lt;font style=&quot;font-size: 20px;&quot;&gt;&lt;b&gt;A&lt;/b&gt;&lt;/font&gt;" style="rounded=0;whiteSpace=wrap;html=1;fillColor=#d5e8d4;strokeColor=#82b366;" parent="1" vertex="1">
          <mxGeometry x="390" y="419" width="50" height="50" as="geometry" />
        </mxCell>
        <mxCell id="xE5BTWYlB8bozgJy7pTg-36" value="&lt;span style=&quot;font-size: 20px;&quot;&gt;&lt;b&gt;B&lt;/b&gt;&lt;/span&gt;" style="rounded=0;whiteSpace=wrap;html=1;fillColor=#f8cecc;strokeColor=#b85450;" parent="1" vertex="1">
          <mxGeometry x="580" y="419" width="50" height="50" as="geometry" />
        </mxCell>
        <mxCell id="xE5BTWYlB8bozgJy7pTg-37" value="&lt;font style=&quot;font-size: 20px;&quot;&gt;&lt;b&gt;R&lt;/b&gt;&lt;/font&gt;" style="shape=rhombus;perimeter=rhombusPerimeter;whiteSpace=wrap;html=1;align=center;fillColor=#f5f5f5;strokeColor=#666666;fontColor=#333333;" parent="1" vertex="1">
          <mxGeometry x="480" y="414" width="70" height="60" as="geometry" />
        </mxCell>
        <mxCell id="xE5BTWYlB8bozgJy7pTg-38" value="&lt;font style=&quot;font-size: 14px;&quot; color=&quot;#9933ff&quot;&gt;&lt;b&gt;&lt;font style=&quot;border-color: var(--border-color); font-size: 14px;&quot;&gt;&lt;span style=&quot;border-color: var(--border-color);&quot;&gt;&lt;span style=&quot;border-color: var(--border-color); font-size: 14px;&quot;&gt;A =&amp;nbsp;&lt;u style=&quot;border-color: var(--border-color);&quot;&gt;a0&lt;/u&gt;&amp;nbsp;+ ...&lt;br style=&quot;border-color: var(--border-color);&quot;&gt;&lt;/span&gt;B =&amp;nbsp;&lt;u style=&quot;border-color: var(--border-color);&quot;&gt;b0&lt;/u&gt;&amp;nbsp;+ ...&lt;br style=&quot;border-color: var(--border-color);&quot;&gt;C =&amp;nbsp;&lt;u style=&quot;border-color: var(--border-color);&quot;&gt;c0&lt;/u&gt;&amp;nbsp;+ ...&lt;br style=&quot;border-color: var(--border-color);&quot;&gt;&lt;/span&gt;&lt;/font&gt;&lt;span style=&quot;border-color: var(--border-color); font-size: 14px;&quot;&gt;&lt;/span&gt;&lt;span style=&quot;border-color: var(--border-color); font-size: 14px;&quot;&gt;&lt;font style=&quot;border-color: var(--border-color); font-size: 14px;&quot;&gt;&lt;span style=&quot;border-color: var(--border-color);&quot;&gt;R =&amp;nbsp;&lt;u style=&quot;border-color: var(--border-color);&quot;&gt;a0+b0&lt;/u&gt;&amp;nbsp;+ c0 + ...&lt;br&gt;&lt;span style=&quot;white-space: pre;&quot;&gt;&#x9;&lt;/span&gt;C.Aj: a0, b0, c0&lt;br&gt;&lt;span style=&quot;white-space: pre;&quot;&gt;&#x9;&lt;/span&gt;NotNull: c0&lt;/span&gt;&lt;/font&gt;&lt;/span&gt;&lt;font style=&quot;font-size: 14px;&quot;&gt;&lt;font style=&quot;font-size: 14px;&quot;&gt;&lt;br&gt;&lt;span style=&quot;line-height: 107%;&quot;&gt;ASERCIÓN 1:&lt;/span&gt;&lt;span style=&quot;font-family: Arial, sans-serif;&quot;&gt;&amp;nbsp;A&amp;nbsp;&lt;/span&gt;&lt;span style=&quot;font-family: &amp;quot;Cambria Math&amp;quot;, serif;&quot;&gt;⊆&lt;/span&gt;&lt;span style=&quot;line-height: 107%;&quot;&gt;&amp;nbsp;R&lt;br&gt;&lt;/span&gt;&lt;/font&gt;ASERCIÓN 2:&lt;span style=&quot;border-color: var(--border-color); font-family: Arial, sans-serif;&quot;&gt;&amp;nbsp;B&amp;nbsp;&lt;/span&gt;&lt;span style=&quot;border-color: var(--border-color); font-family: &amp;quot;Cambria Math&amp;quot;, serif;&quot;&gt;⊆&lt;/span&gt;&lt;span style=&quot;border-color: var(--border-color); line-height: 16.05px;&quot;&gt;&amp;nbsp;R&lt;br&gt;&lt;/span&gt;&lt;/font&gt;&lt;span style=&quot;border-color: var(--border-color); font-size: 14px;&quot;&gt;ASERCIÓN 3: C&amp;nbsp;&lt;span style=&quot;border-color: var(--border-color); font-family: &amp;quot;Cambria Math&amp;quot;, serif;&quot;&gt;⊆&lt;/span&gt;&lt;span style=&quot;border-color: var(--border-color); line-height: 16.05px;&quot;&gt;&amp;nbsp;R&lt;/span&gt;&lt;/span&gt;&lt;/b&gt;&lt;/font&gt;&lt;span style=&quot;font-size: 14px;&quot;&gt;&lt;b&gt;&lt;br&gt;&lt;/b&gt;&lt;/span&gt;" style="text;strokeColor=none;fillColor=none;align=left;verticalAlign=middle;spacingLeft=4;spacingRight=4;overflow=hidden;points=[[0,0.5],[1,0.5]];portConstraint=eastwest;rotatable=0;whiteSpace=wrap;html=1;" parent="1" vertex="1">
          <mxGeometry x="350" y="567" width="200" height="160" as="geometry" />
        </mxCell>
        <mxCell id="xE5BTWYlB8bozgJy7pTg-39" value="" style="shape=link;html=1;rounded=0;exitX=1;exitY=0.5;exitDx=0;exitDy=0;" parent="1" source="xE5BTWYlB8bozgJy7pTg-35" target="xE5BTWYlB8bozgJy7pTg-37" edge="1">
          <mxGeometry relative="1" as="geometry">
            <mxPoint x="330" y="634" as="sourcePoint" />
            <mxPoint x="490" y="634" as="targetPoint" />
          </mxGeometry>
        </mxCell>
        <mxCell id="xE5BTWYlB8bozgJy7pTg-40" value="N" style="resizable=0;html=1;whiteSpace=wrap;align=right;verticalAlign=bottom;" parent="xE5BTWYlB8bozgJy7pTg-39" connectable="0" vertex="1">
          <mxGeometry x="1" relative="1" as="geometry" />
        </mxCell>
        <mxCell id="xE5BTWYlB8bozgJy7pTg-41" value="" style="shape=link;html=1;rounded=0;exitX=1;exitY=0.5;exitDx=0;exitDy=0;entryX=0;entryY=0.5;entryDx=0;entryDy=0;" parent="1" source="xE5BTWYlB8bozgJy7pTg-37" target="xE5BTWYlB8bozgJy7pTg-36" edge="1">
          <mxGeometry relative="1" as="geometry">
            <mxPoint x="450" y="454" as="sourcePoint" />
            <mxPoint x="490" y="454" as="targetPoint" />
          </mxGeometry>
        </mxCell>
        <mxCell id="xE5BTWYlB8bozgJy7pTg-42" value="N" style="resizable=0;html=1;whiteSpace=wrap;align=right;verticalAlign=bottom;" parent="xE5BTWYlB8bozgJy7pTg-41" connectable="0" vertex="1">
          <mxGeometry x="1" relative="1" as="geometry" />
        </mxCell>
        <mxCell id="xE5BTWYlB8bozgJy7pTg-43" value="&lt;span style=&quot;font-size: 20px;&quot;&gt;&lt;b&gt;C&lt;/b&gt;&lt;/span&gt;" style="rounded=0;whiteSpace=wrap;html=1;fillColor=#fff2cc;strokeColor=#d6b656;" parent="1" vertex="1">
          <mxGeometry x="160" y="509" width="50" height="50" as="geometry" />
        </mxCell>
        <mxCell id="xE5BTWYlB8bozgJy7pTg-46" value="&lt;span style=&quot;font-size: 20px;&quot;&gt;&lt;b&gt;C&lt;/b&gt;&lt;/span&gt;" style="rounded=0;whiteSpace=wrap;html=1;fillColor=#fff2cc;strokeColor=#d6b656;" parent="1" vertex="1">
          <mxGeometry x="490" y="509" width="50" height="50" as="geometry" />
        </mxCell>
        <mxCell id="xE5BTWYlB8bozgJy7pTg-49" value="&lt;font color=&quot;#ff3333&quot;&gt;&lt;b&gt;Tantas aserciones como cardinalidades mínimas1.&lt;/b&gt;&lt;/font&gt;" style="text;strokeColor=none;fillColor=none;align=left;verticalAlign=middle;spacingLeft=4;spacingRight=4;overflow=hidden;points=[[0,0.5],[1,0.5]];portConstraint=eastwest;rotatable=0;whiteSpace=wrap;html=1;" parent="1" vertex="1">
          <mxGeometry x="550" y="677" width="170" height="40" as="geometry" />
        </mxCell>
        <mxCell id="xE5BTWYlB8bozgJy7pTg-50" value="" style="endArrow=none;html=1;rounded=0;exitX=0.5;exitY=1;exitDx=0;exitDy=0;entryX=0.5;entryY=0;entryDx=0;entryDy=0;" parent="1" source="xE5BTWYlB8bozgJy7pTg-29" target="xE5BTWYlB8bozgJy7pTg-43" edge="1">
          <mxGeometry relative="1" as="geometry">
            <mxPoint x="330" y="480" as="sourcePoint" />
            <mxPoint x="490" y="480" as="targetPoint" />
          </mxGeometry>
        </mxCell>
        <mxCell id="xE5BTWYlB8bozgJy7pTg-51" value="1" style="resizable=0;html=1;whiteSpace=wrap;align=right;verticalAlign=bottom;" parent="xE5BTWYlB8bozgJy7pTg-50" connectable="0" vertex="1">
          <mxGeometry x="1" relative="1" as="geometry" />
        </mxCell>
        <mxCell id="xE5BTWYlB8bozgJy7pTg-56" value="" style="shape=link;html=1;rounded=0;entryX=0.5;entryY=0;entryDx=0;entryDy=0;exitX=0.5;exitY=1;exitDx=0;exitDy=0;" parent="1" source="xE5BTWYlB8bozgJy7pTg-37" target="xE5BTWYlB8bozgJy7pTg-46" edge="1">
          <mxGeometry relative="1" as="geometry">
            <mxPoint x="330" y="480" as="sourcePoint" />
            <mxPoint x="490" y="480" as="targetPoint" />
          </mxGeometry>
        </mxCell>
        <mxCell id="xE5BTWYlB8bozgJy7pTg-57" value="1" style="resizable=0;html=1;whiteSpace=wrap;align=right;verticalAlign=bottom;" parent="xE5BTWYlB8bozgJy7pTg-56" connectable="0" vertex="1">
          <mxGeometry x="1" relative="1" as="geometry" />
        </mxCell>
        <mxCell id="xE5BTWYlB8bozgJy7pTg-58" value="&lt;font style=&quot;font-size: 20px;&quot;&gt;&lt;b&gt;A&lt;/b&gt;&lt;/font&gt;" style="rounded=0;whiteSpace=wrap;html=1;fillColor=#d5e8d4;strokeColor=#82b366;" parent="1" vertex="1">
          <mxGeometry x="60" y="760" width="50" height="50" as="geometry" />
        </mxCell>
        <mxCell id="xE5BTWYlB8bozgJy7pTg-59" value="&lt;span style=&quot;font-size: 20px;&quot;&gt;&lt;b&gt;B&lt;/b&gt;&lt;/span&gt;" style="rounded=0;whiteSpace=wrap;html=1;fillColor=#f8cecc;strokeColor=#b85450;" parent="1" vertex="1">
          <mxGeometry x="250" y="760" width="50" height="50" as="geometry" />
        </mxCell>
        <mxCell id="xE5BTWYlB8bozgJy7pTg-60" value="&lt;font style=&quot;font-size: 20px;&quot;&gt;&lt;b&gt;R&lt;/b&gt;&lt;/font&gt;" style="shape=rhombus;perimeter=rhombusPerimeter;whiteSpace=wrap;html=1;align=center;fillColor=#f5f5f5;strokeColor=#666666;fontColor=#333333;" parent="1" vertex="1">
          <mxGeometry x="150" y="755" width="70" height="60" as="geometry" />
        </mxCell>
        <mxCell id="xE5BTWYlB8bozgJy7pTg-63" value="" style="endArrow=none;html=1;rounded=0;exitX=1;exitY=0.5;exitDx=0;exitDy=0;entryX=0;entryY=0.5;entryDx=0;entryDy=0;" parent="1" source="xE5BTWYlB8bozgJy7pTg-58" target="xE5BTWYlB8bozgJy7pTg-60" edge="1">
          <mxGeometry relative="1" as="geometry">
            <mxPoint x="230" y="795" as="sourcePoint" />
            <mxPoint x="260" y="795" as="targetPoint" />
          </mxGeometry>
        </mxCell>
        <mxCell id="xE5BTWYlB8bozgJy7pTg-64" value="N" style="resizable=0;html=1;whiteSpace=wrap;align=right;verticalAlign=bottom;" parent="xE5BTWYlB8bozgJy7pTg-63" connectable="0" vertex="1">
          <mxGeometry x="1" relative="1" as="geometry" />
        </mxCell>
        <mxCell id="xE5BTWYlB8bozgJy7pTg-65" value="&lt;span style=&quot;border-color: var(--border-color); font-size: 14px;&quot;&gt;&lt;font style=&quot;&quot; color=&quot;#9933ff&quot;&gt;&lt;b&gt;&lt;span style=&quot;border-color: var(--border-color);&quot;&gt;A = &lt;u style=&quot;&quot;&gt;a0&lt;/u&gt; + ...&lt;br&gt;&lt;/span&gt;B = &lt;u style=&quot;&quot;&gt;b0&lt;/u&gt; + ...&lt;br&gt;C = &lt;u style=&quot;&quot;&gt;c0&lt;/u&gt; + ...&lt;br&gt;&lt;/b&gt;&lt;/font&gt;&lt;/span&gt;&lt;span style=&quot;font-size: 14px;&quot;&gt;&lt;font style=&quot;&quot; color=&quot;#9933ff&quot;&gt;&lt;b&gt;R = &lt;u style=&quot;&quot;&gt;a0+b0&lt;/u&gt; + c0 + ...&lt;br&gt;&lt;span style=&quot;white-space: pre;&quot;&gt;&#x9;&lt;/span&gt;C.Aj: a0, b0, c0&lt;br&gt;&lt;span style=&quot;white-space: pre;&quot;&gt;&#x9;&lt;/span&gt;NotNull: c0&lt;/b&gt;&lt;/font&gt;&lt;br&gt;&lt;/span&gt;" style="text;strokeColor=none;fillColor=none;align=left;verticalAlign=middle;spacingLeft=4;spacingRight=4;overflow=hidden;points=[[0,0.5],[1,0.5]];portConstraint=eastwest;rotatable=0;whiteSpace=wrap;html=1;" parent="1" vertex="1">
          <mxGeometry x="61" y="908" width="169" height="119" as="geometry" />
        </mxCell>
        <mxCell id="xE5BTWYlB8bozgJy7pTg-66" value="&lt;font style=&quot;font-size: 20px;&quot;&gt;&lt;b&gt;A&lt;/b&gt;&lt;/font&gt;" style="rounded=0;whiteSpace=wrap;html=1;fillColor=#d5e8d4;strokeColor=#82b366;" parent="1" vertex="1">
          <mxGeometry x="390" y="765" width="50" height="50" as="geometry" />
        </mxCell>
        <mxCell id="xE5BTWYlB8bozgJy7pTg-67" value="&lt;span style=&quot;font-size: 20px;&quot;&gt;&lt;b&gt;B&lt;/b&gt;&lt;/span&gt;" style="rounded=0;whiteSpace=wrap;html=1;fillColor=#f8cecc;strokeColor=#b85450;" parent="1" vertex="1">
          <mxGeometry x="580" y="765" width="50" height="50" as="geometry" />
        </mxCell>
        <mxCell id="xE5BTWYlB8bozgJy7pTg-68" value="&lt;font style=&quot;font-size: 20px;&quot;&gt;&lt;b&gt;R&lt;/b&gt;&lt;/font&gt;" style="shape=rhombus;perimeter=rhombusPerimeter;whiteSpace=wrap;html=1;align=center;fillColor=#f5f5f5;strokeColor=#666666;fontColor=#333333;" parent="1" vertex="1">
          <mxGeometry x="480" y="760" width="70" height="60" as="geometry" />
        </mxCell>
        <mxCell id="xE5BTWYlB8bozgJy7pTg-69" value="&lt;font style=&quot;font-size: 14px;&quot; color=&quot;#9933ff&quot;&gt;&lt;b&gt;&lt;font style=&quot;border-color: var(--border-color); font-size: 14px;&quot;&gt;&lt;span style=&quot;border-color: var(--border-color);&quot;&gt;&lt;span style=&quot;border-color: var(--border-color); font-size: 14px;&quot;&gt;A =&amp;nbsp;&lt;u style=&quot;border-color: var(--border-color);&quot;&gt;a0&lt;/u&gt;&amp;nbsp;+ ...&lt;br style=&quot;border-color: var(--border-color);&quot;&gt;&lt;/span&gt;B =&amp;nbsp;&lt;u style=&quot;border-color: var(--border-color);&quot;&gt;b0&lt;/u&gt;&amp;nbsp;+ ...&lt;br style=&quot;border-color: var(--border-color);&quot;&gt;C =&amp;nbsp;&lt;u style=&quot;border-color: var(--border-color);&quot;&gt;c0&lt;/u&gt;&amp;nbsp;+ ...&lt;br style=&quot;border-color: var(--border-color);&quot;&gt;&lt;/span&gt;&lt;/font&gt;&lt;span style=&quot;border-color: var(--border-color); font-size: 14px;&quot;&gt;&lt;/span&gt;&lt;span style=&quot;border-color: var(--border-color); font-size: 14px;&quot;&gt;&lt;font style=&quot;border-color: var(--border-color); font-size: 14px;&quot;&gt;&lt;span style=&quot;border-color: var(--border-color);&quot;&gt;R =&amp;nbsp;&lt;u style=&quot;border-color: var(--border-color);&quot;&gt;a0+b0&lt;/u&gt;&amp;nbsp;+ c0 + ...&lt;br&gt;&lt;span style=&quot;white-space: pre;&quot;&gt;&#x9;&lt;/span&gt;C.Aj: a0, b0, c0&lt;br&gt;&lt;span style=&quot;white-space: pre;&quot;&gt;&#x9;&lt;/span&gt;NotNull: c0&lt;/span&gt;&lt;/font&gt;&lt;/span&gt;&lt;font style=&quot;font-size: 14px;&quot;&gt;&lt;font style=&quot;font-size: 14px;&quot;&gt;&lt;br&gt;&lt;span style=&quot;line-height: 107%;&quot;&gt;ASERCIÓN 1:&lt;/span&gt;&lt;span style=&quot;font-family: Arial, sans-serif;&quot;&gt;&amp;nbsp;A&amp;nbsp;&lt;/span&gt;&lt;span style=&quot;font-family: &amp;quot;Cambria Math&amp;quot;, serif;&quot;&gt;⊆&lt;/span&gt;&lt;span style=&quot;line-height: 107%;&quot;&gt;&amp;nbsp;R&lt;br&gt;&lt;/span&gt;&lt;/font&gt;ASERCIÓN 2:&lt;span style=&quot;border-color: var(--border-color); font-family: Arial, sans-serif;&quot;&gt;&amp;nbsp;B&amp;nbsp;&lt;/span&gt;&lt;span style=&quot;border-color: var(--border-color); font-family: &amp;quot;Cambria Math&amp;quot;, serif;&quot;&gt;⊆&lt;/span&gt;&lt;span style=&quot;border-color: var(--border-color); line-height: 16.05px;&quot;&gt;&amp;nbsp;R&lt;br&gt;&lt;/span&gt;&lt;/font&gt;&lt;span style=&quot;border-color: var(--border-color); font-size: 14px;&quot;&gt;ASERCIÓN 3: C&amp;nbsp;&lt;span style=&quot;border-color: var(--border-color); font-family: &amp;quot;Cambria Math&amp;quot;, serif;&quot;&gt;⊆&lt;/span&gt;&lt;span style=&quot;border-color: var(--border-color); line-height: 16.05px;&quot;&gt;&amp;nbsp;R&lt;/span&gt;&lt;/span&gt;&lt;/b&gt;&lt;/font&gt;&lt;span style=&quot;font-size: 14px;&quot;&gt;&lt;b&gt;&lt;br&gt;&lt;/b&gt;&lt;/span&gt;" style="text;strokeColor=none;fillColor=none;align=left;verticalAlign=middle;spacingLeft=4;spacingRight=4;overflow=hidden;points=[[0,0.5],[1,0.5]];portConstraint=eastwest;rotatable=0;whiteSpace=wrap;html=1;" parent="1" vertex="1">
          <mxGeometry x="350" y="913" width="200" height="160" as="geometry" />
        </mxCell>
        <mxCell id="xE5BTWYlB8bozgJy7pTg-70" value="" style="shape=link;html=1;rounded=0;exitX=1;exitY=0.5;exitDx=0;exitDy=0;" parent="1" source="xE5BTWYlB8bozgJy7pTg-66" target="xE5BTWYlB8bozgJy7pTg-68" edge="1">
          <mxGeometry relative="1" as="geometry">
            <mxPoint x="330" y="980" as="sourcePoint" />
            <mxPoint x="490" y="980" as="targetPoint" />
          </mxGeometry>
        </mxCell>
        <mxCell id="xE5BTWYlB8bozgJy7pTg-71" value="N" style="resizable=0;html=1;whiteSpace=wrap;align=right;verticalAlign=bottom;" parent="xE5BTWYlB8bozgJy7pTg-70" connectable="0" vertex="1">
          <mxGeometry x="1" relative="1" as="geometry" />
        </mxCell>
        <mxCell id="xE5BTWYlB8bozgJy7pTg-74" value="&lt;span style=&quot;font-size: 20px;&quot;&gt;&lt;b&gt;C&lt;/b&gt;&lt;/span&gt;" style="rounded=0;whiteSpace=wrap;html=1;fillColor=#fff2cc;strokeColor=#d6b656;" parent="1" vertex="1">
          <mxGeometry x="160" y="855" width="50" height="50" as="geometry" />
        </mxCell>
        <mxCell id="xE5BTWYlB8bozgJy7pTg-75" value="&lt;span style=&quot;font-size: 20px;&quot;&gt;&lt;b&gt;C&lt;/b&gt;&lt;/span&gt;" style="rounded=0;whiteSpace=wrap;html=1;fillColor=#fff2cc;strokeColor=#d6b656;" parent="1" vertex="1">
          <mxGeometry x="490" y="855" width="50" height="50" as="geometry" />
        </mxCell>
        <mxCell id="xE5BTWYlB8bozgJy7pTg-76" value="&lt;font color=&quot;#ff3333&quot;&gt;&lt;b&gt;Tantas aserciones como cardinalidades mínimas1.&lt;/b&gt;&lt;/font&gt;" style="text;strokeColor=none;fillColor=none;align=left;verticalAlign=middle;spacingLeft=4;spacingRight=4;overflow=hidden;points=[[0,0.5],[1,0.5]];portConstraint=eastwest;rotatable=0;whiteSpace=wrap;html=1;" parent="1" vertex="1">
          <mxGeometry x="550" y="1023" width="170" height="40" as="geometry" />
        </mxCell>
        <mxCell id="xE5BTWYlB8bozgJy7pTg-77" value="" style="endArrow=none;html=1;rounded=0;exitX=0.5;exitY=1;exitDx=0;exitDy=0;entryX=0.5;entryY=0;entryDx=0;entryDy=0;" parent="1" source="xE5BTWYlB8bozgJy7pTg-60" target="xE5BTWYlB8bozgJy7pTg-74" edge="1">
          <mxGeometry relative="1" as="geometry">
            <mxPoint x="330" y="826" as="sourcePoint" />
            <mxPoint x="490" y="826" as="targetPoint" />
          </mxGeometry>
        </mxCell>
        <mxCell id="xE5BTWYlB8bozgJy7pTg-78" value="1" style="resizable=0;html=1;whiteSpace=wrap;align=right;verticalAlign=bottom;" parent="xE5BTWYlB8bozgJy7pTg-77" connectable="0" vertex="1">
          <mxGeometry x="1" relative="1" as="geometry" />
        </mxCell>
        <mxCell id="xE5BTWYlB8bozgJy7pTg-79" value="" style="shape=link;html=1;rounded=0;entryX=0.5;entryY=0;entryDx=0;entryDy=0;exitX=0.5;exitY=1;exitDx=0;exitDy=0;" parent="1" source="xE5BTWYlB8bozgJy7pTg-68" target="xE5BTWYlB8bozgJy7pTg-75" edge="1">
          <mxGeometry relative="1" as="geometry">
            <mxPoint x="330" y="826" as="sourcePoint" />
            <mxPoint x="490" y="826" as="targetPoint" />
          </mxGeometry>
        </mxCell>
        <mxCell id="xE5BTWYlB8bozgJy7pTg-80" value="1" style="resizable=0;html=1;whiteSpace=wrap;align=right;verticalAlign=bottom;" parent="xE5BTWYlB8bozgJy7pTg-79" connectable="0" vertex="1">
          <mxGeometry x="1" relative="1" as="geometry" />
        </mxCell>
        <mxCell id="xE5BTWYlB8bozgJy7pTg-81" value="" style="shape=link;html=1;rounded=0;entryX=0;entryY=0.5;entryDx=0;entryDy=0;exitX=1;exitY=0.5;exitDx=0;exitDy=0;" parent="1" source="xE5BTWYlB8bozgJy7pTg-68" target="xE5BTWYlB8bozgJy7pTg-67" edge="1">
          <mxGeometry relative="1" as="geometry">
            <mxPoint x="525" y="830" as="sourcePoint" />
            <mxPoint x="525" y="865" as="targetPoint" />
          </mxGeometry>
        </mxCell>
        <mxCell id="xE5BTWYlB8bozgJy7pTg-82" value="1" style="resizable=0;html=1;whiteSpace=wrap;align=right;verticalAlign=bottom;" parent="xE5BTWYlB8bozgJy7pTg-81" connectable="0" vertex="1">
          <mxGeometry x="1" relative="1" as="geometry" />
        </mxCell>
        <mxCell id="xE5BTWYlB8bozgJy7pTg-83" value="" style="endArrow=none;html=1;rounded=0;exitX=1;exitY=0.5;exitDx=0;exitDy=0;entryX=0;entryY=0.5;entryDx=0;entryDy=0;" parent="1" source="xE5BTWYlB8bozgJy7pTg-60" target="xE5BTWYlB8bozgJy7pTg-59" edge="1">
          <mxGeometry relative="1" as="geometry">
            <mxPoint x="195" y="825" as="sourcePoint" />
            <mxPoint x="195" y="865" as="targetPoint" />
          </mxGeometry>
        </mxCell>
        <mxCell id="xE5BTWYlB8bozgJy7pTg-84" value="1" style="resizable=0;html=1;whiteSpace=wrap;align=right;verticalAlign=bottom;" parent="xE5BTWYlB8bozgJy7pTg-83" connectable="0" vertex="1">
          <mxGeometry x="1" relative="1" as="geometry" />
        </mxCell>
        <mxCell id="xE5BTWYlB8bozgJy7pTg-85" value="&lt;font style=&quot;font-size: 20px;&quot;&gt;&lt;b&gt;A&lt;/b&gt;&lt;/font&gt;" style="rounded=0;whiteSpace=wrap;html=1;fillColor=#d5e8d4;strokeColor=#82b366;" parent="1" vertex="1">
          <mxGeometry x="60" y="1109" width="50" height="50" as="geometry" />
        </mxCell>
        <mxCell id="xE5BTWYlB8bozgJy7pTg-86" value="&lt;span style=&quot;font-size: 20px;&quot;&gt;&lt;b&gt;B&lt;/b&gt;&lt;/span&gt;" style="rounded=0;whiteSpace=wrap;html=1;fillColor=#f8cecc;strokeColor=#b85450;" parent="1" vertex="1">
          <mxGeometry x="250" y="1109" width="50" height="50" as="geometry" />
        </mxCell>
        <mxCell id="xE5BTWYlB8bozgJy7pTg-87" value="&lt;font style=&quot;font-size: 20px;&quot;&gt;&lt;b&gt;R&lt;/b&gt;&lt;/font&gt;" style="shape=rhombus;perimeter=rhombusPerimeter;whiteSpace=wrap;html=1;align=center;fillColor=#f5f5f5;strokeColor=#666666;fontColor=#333333;" parent="1" vertex="1">
          <mxGeometry x="150" y="1104" width="70" height="60" as="geometry" />
        </mxCell>
        <mxCell id="xE5BTWYlB8bozgJy7pTg-90" value="&lt;span style=&quot;border-color: var(--border-color); font-size: 14px;&quot;&gt;&lt;font style=&quot;&quot; color=&quot;#9933ff&quot;&gt;&lt;b&gt;&lt;span style=&quot;border-color: var(--border-color);&quot;&gt;A = &lt;u style=&quot;&quot;&gt;a0&lt;/u&gt; + ...&lt;br&gt;&lt;/span&gt;B = &lt;u style=&quot;&quot;&gt;b0&lt;/u&gt; + ...&lt;br&gt;C = &lt;u style=&quot;&quot;&gt;c0&lt;/u&gt; + ...&lt;br&gt;&lt;/b&gt;&lt;/font&gt;&lt;/span&gt;&lt;span style=&quot;font-size: 14px;&quot;&gt;&lt;font style=&quot;&quot; color=&quot;#9933ff&quot;&gt;&lt;b&gt;R = &lt;u style=&quot;&quot;&gt;a0+b0&lt;/u&gt; + c0 + ...&lt;br&gt;&lt;span style=&quot;white-space: pre;&quot;&gt;&#x9;&lt;/span&gt;C.Aj: a0, b0, c0&lt;br&gt;&lt;span style=&quot;white-space: pre;&quot;&gt;&#x9;&lt;/span&gt;NotNull: c0&lt;/b&gt;&lt;/font&gt;&lt;br&gt;&lt;/span&gt;" style="text;strokeColor=none;fillColor=none;align=left;verticalAlign=middle;spacingLeft=4;spacingRight=4;overflow=hidden;points=[[0,0.5],[1,0.5]];portConstraint=eastwest;rotatable=0;whiteSpace=wrap;html=1;" parent="1" vertex="1">
          <mxGeometry x="61" y="1257" width="169" height="119" as="geometry" />
        </mxCell>
        <mxCell id="xE5BTWYlB8bozgJy7pTg-91" value="&lt;font style=&quot;font-size: 20px;&quot;&gt;&lt;b&gt;A&lt;/b&gt;&lt;/font&gt;" style="rounded=0;whiteSpace=wrap;html=1;fillColor=#d5e8d4;strokeColor=#82b366;" parent="1" vertex="1">
          <mxGeometry x="390" y="1114" width="50" height="50" as="geometry" />
        </mxCell>
        <mxCell id="xE5BTWYlB8bozgJy7pTg-92" value="&lt;span style=&quot;font-size: 20px;&quot;&gt;&lt;b&gt;B&lt;/b&gt;&lt;/span&gt;" style="rounded=0;whiteSpace=wrap;html=1;fillColor=#f8cecc;strokeColor=#b85450;" parent="1" vertex="1">
          <mxGeometry x="580" y="1114" width="50" height="50" as="geometry" />
        </mxCell>
        <mxCell id="xE5BTWYlB8bozgJy7pTg-93" value="&lt;font style=&quot;font-size: 20px;&quot;&gt;&lt;b&gt;R&lt;/b&gt;&lt;/font&gt;" style="shape=rhombus;perimeter=rhombusPerimeter;whiteSpace=wrap;html=1;align=center;fillColor=#f5f5f5;strokeColor=#666666;fontColor=#333333;" parent="1" vertex="1">
          <mxGeometry x="480" y="1109" width="70" height="60" as="geometry" />
        </mxCell>
        <mxCell id="xE5BTWYlB8bozgJy7pTg-94" value="&lt;font style=&quot;font-size: 14px;&quot; color=&quot;#9933ff&quot;&gt;&lt;b&gt;&lt;font style=&quot;border-color: var(--border-color); font-size: 14px;&quot;&gt;&lt;span style=&quot;border-color: var(--border-color);&quot;&gt;&lt;span style=&quot;border-color: var(--border-color); font-size: 14px;&quot;&gt;A =&amp;nbsp;&lt;u style=&quot;border-color: var(--border-color);&quot;&gt;a0&lt;/u&gt;&amp;nbsp;+ ...&lt;br style=&quot;border-color: var(--border-color);&quot;&gt;&lt;/span&gt;B =&amp;nbsp;&lt;u style=&quot;border-color: var(--border-color);&quot;&gt;b0&lt;/u&gt;&amp;nbsp;+ ...&lt;br style=&quot;border-color: var(--border-color);&quot;&gt;C =&amp;nbsp;&lt;u style=&quot;border-color: var(--border-color);&quot;&gt;c0&lt;/u&gt;&amp;nbsp;+ ...&lt;br style=&quot;border-color: var(--border-color);&quot;&gt;&lt;/span&gt;&lt;/font&gt;&lt;span style=&quot;border-color: var(--border-color); font-size: 14px;&quot;&gt;&lt;/span&gt;&lt;span style=&quot;border-color: var(--border-color); font-size: 14px;&quot;&gt;&lt;font style=&quot;border-color: var(--border-color); font-size: 14px;&quot;&gt;&lt;span style=&quot;border-color: var(--border-color);&quot;&gt;R =&amp;nbsp;&lt;u style=&quot;border-color: var(--border-color);&quot;&gt;a0+b0&lt;/u&gt;&amp;nbsp;+ c0 + ...&lt;br&gt;&lt;span style=&quot;white-space: pre;&quot;&gt;&#x9;&lt;/span&gt;C.Aj: a0, b0, c0&lt;br&gt;&lt;span style=&quot;white-space: pre;&quot;&gt;&#x9;&lt;/span&gt;NotNull: c0&lt;/span&gt;&lt;/font&gt;&lt;/span&gt;&lt;font style=&quot;font-size: 14px;&quot;&gt;&lt;font style=&quot;font-size: 14px;&quot;&gt;&lt;br&gt;&lt;span style=&quot;line-height: 107%;&quot;&gt;ASERCIÓN 1:&lt;/span&gt;&lt;span style=&quot;font-family: Arial, sans-serif;&quot;&gt;&amp;nbsp;A&amp;nbsp;&lt;/span&gt;&lt;span style=&quot;font-family: &amp;quot;Cambria Math&amp;quot;, serif;&quot;&gt;⊆&lt;/span&gt;&lt;span style=&quot;line-height: 107%;&quot;&gt;&amp;nbsp;R&lt;br&gt;&lt;/span&gt;&lt;/font&gt;ASERCIÓN 2:&lt;span style=&quot;border-color: var(--border-color); font-family: Arial, sans-serif;&quot;&gt;&amp;nbsp;B&amp;nbsp;&lt;/span&gt;&lt;span style=&quot;border-color: var(--border-color); font-family: &amp;quot;Cambria Math&amp;quot;, serif;&quot;&gt;⊆&lt;/span&gt;&lt;span style=&quot;border-color: var(--border-color); line-height: 16.05px;&quot;&gt;&amp;nbsp;R&lt;br&gt;&lt;/span&gt;&lt;/font&gt;&lt;span style=&quot;border-color: var(--border-color); font-size: 14px;&quot;&gt;ASERCIÓN 3: C&amp;nbsp;&lt;span style=&quot;border-color: var(--border-color); font-family: &amp;quot;Cambria Math&amp;quot;, serif;&quot;&gt;⊆&lt;/span&gt;&lt;span style=&quot;border-color: var(--border-color); line-height: 16.05px;&quot;&gt;&amp;nbsp;R&lt;/span&gt;&lt;/span&gt;&lt;/b&gt;&lt;/font&gt;&lt;span style=&quot;font-size: 14px;&quot;&gt;&lt;b&gt;&lt;br&gt;&lt;/b&gt;&lt;/span&gt;" style="text;strokeColor=none;fillColor=none;align=left;verticalAlign=middle;spacingLeft=4;spacingRight=4;overflow=hidden;points=[[0,0.5],[1,0.5]];portConstraint=eastwest;rotatable=0;whiteSpace=wrap;html=1;" parent="1" vertex="1">
          <mxGeometry x="350" y="1262" width="200" height="160" as="geometry" />
        </mxCell>
        <mxCell id="xE5BTWYlB8bozgJy7pTg-97" value="&lt;span style=&quot;font-size: 20px;&quot;&gt;&lt;b&gt;C&lt;/b&gt;&lt;/span&gt;" style="rounded=0;whiteSpace=wrap;html=1;fillColor=#fff2cc;strokeColor=#d6b656;" parent="1" vertex="1">
          <mxGeometry x="160" y="1204" width="50" height="50" as="geometry" />
        </mxCell>
        <mxCell id="xE5BTWYlB8bozgJy7pTg-98" value="&lt;span style=&quot;font-size: 20px;&quot;&gt;&lt;b&gt;C&lt;/b&gt;&lt;/span&gt;" style="rounded=0;whiteSpace=wrap;html=1;fillColor=#fff2cc;strokeColor=#d6b656;" parent="1" vertex="1">
          <mxGeometry x="490" y="1204" width="50" height="50" as="geometry" />
        </mxCell>
        <mxCell id="xE5BTWYlB8bozgJy7pTg-99" value="&lt;font color=&quot;#ff3333&quot;&gt;&lt;b&gt;Tantas aserciones como cardinalidades mínimas1.&lt;/b&gt;&lt;/font&gt;" style="text;strokeColor=none;fillColor=none;align=left;verticalAlign=middle;spacingLeft=4;spacingRight=4;overflow=hidden;points=[[0,0.5],[1,0.5]];portConstraint=eastwest;rotatable=0;whiteSpace=wrap;html=1;" parent="1" vertex="1">
          <mxGeometry x="550" y="1372" width="170" height="40" as="geometry" />
        </mxCell>
        <mxCell id="xE5BTWYlB8bozgJy7pTg-100" value="" style="endArrow=none;html=1;rounded=0;exitX=0.5;exitY=1;exitDx=0;exitDy=0;entryX=0.5;entryY=0;entryDx=0;entryDy=0;" parent="1" source="xE5BTWYlB8bozgJy7pTg-87" target="xE5BTWYlB8bozgJy7pTg-97" edge="1">
          <mxGeometry relative="1" as="geometry">
            <mxPoint x="330" y="1175" as="sourcePoint" />
            <mxPoint x="490" y="1175" as="targetPoint" />
          </mxGeometry>
        </mxCell>
        <mxCell id="xE5BTWYlB8bozgJy7pTg-101" value="1" style="resizable=0;html=1;whiteSpace=wrap;align=right;verticalAlign=bottom;" parent="xE5BTWYlB8bozgJy7pTg-100" connectable="0" vertex="1">
          <mxGeometry x="1" relative="1" as="geometry" />
        </mxCell>
        <mxCell id="xE5BTWYlB8bozgJy7pTg-102" value="" style="shape=link;html=1;rounded=0;entryX=0.5;entryY=0;entryDx=0;entryDy=0;exitX=0.5;exitY=1;exitDx=0;exitDy=0;" parent="1" source="xE5BTWYlB8bozgJy7pTg-93" target="xE5BTWYlB8bozgJy7pTg-98" edge="1">
          <mxGeometry relative="1" as="geometry">
            <mxPoint x="330" y="1175" as="sourcePoint" />
            <mxPoint x="490" y="1175" as="targetPoint" />
          </mxGeometry>
        </mxCell>
        <mxCell id="xE5BTWYlB8bozgJy7pTg-103" value="1" style="resizable=0;html=1;whiteSpace=wrap;align=right;verticalAlign=bottom;" parent="xE5BTWYlB8bozgJy7pTg-102" connectable="0" vertex="1">
          <mxGeometry x="1" relative="1" as="geometry" />
        </mxCell>
        <mxCell id="xE5BTWYlB8bozgJy7pTg-104" value="" style="shape=link;html=1;rounded=0;entryX=0;entryY=0.5;entryDx=0;entryDy=0;exitX=1;exitY=0.5;exitDx=0;exitDy=0;" parent="1" source="xE5BTWYlB8bozgJy7pTg-93" target="xE5BTWYlB8bozgJy7pTg-92" edge="1">
          <mxGeometry relative="1" as="geometry">
            <mxPoint x="525" y="1179" as="sourcePoint" />
            <mxPoint x="525" y="1214" as="targetPoint" />
          </mxGeometry>
        </mxCell>
        <mxCell id="xE5BTWYlB8bozgJy7pTg-105" value="1" style="resizable=0;html=1;whiteSpace=wrap;align=right;verticalAlign=bottom;" parent="xE5BTWYlB8bozgJy7pTg-104" connectable="0" vertex="1">
          <mxGeometry x="1" relative="1" as="geometry" />
        </mxCell>
        <mxCell id="xE5BTWYlB8bozgJy7pTg-106" value="" style="endArrow=none;html=1;rounded=0;exitX=1;exitY=0.5;exitDx=0;exitDy=0;entryX=0;entryY=0.5;entryDx=0;entryDy=0;" parent="1" source="xE5BTWYlB8bozgJy7pTg-87" target="xE5BTWYlB8bozgJy7pTg-86" edge="1">
          <mxGeometry relative="1" as="geometry">
            <mxPoint x="195" y="1174" as="sourcePoint" />
            <mxPoint x="195" y="1214" as="targetPoint" />
          </mxGeometry>
        </mxCell>
        <mxCell id="xE5BTWYlB8bozgJy7pTg-107" value="1" style="resizable=0;html=1;whiteSpace=wrap;align=right;verticalAlign=bottom;" parent="xE5BTWYlB8bozgJy7pTg-106" connectable="0" vertex="1">
          <mxGeometry x="1" relative="1" as="geometry" />
        </mxCell>
        <mxCell id="xE5BTWYlB8bozgJy7pTg-108" value="" style="shape=link;html=1;rounded=0;entryX=0;entryY=0.5;entryDx=0;entryDy=0;exitX=1;exitY=0.5;exitDx=0;exitDy=0;" parent="1" source="xE5BTWYlB8bozgJy7pTg-91" target="xE5BTWYlB8bozgJy7pTg-93" edge="1">
          <mxGeometry relative="1" as="geometry">
            <mxPoint x="525" y="1179" as="sourcePoint" />
            <mxPoint x="525" y="1214" as="targetPoint" />
          </mxGeometry>
        </mxCell>
        <mxCell id="xE5BTWYlB8bozgJy7pTg-109" value="1" style="resizable=0;html=1;whiteSpace=wrap;align=right;verticalAlign=bottom;" parent="xE5BTWYlB8bozgJy7pTg-108" connectable="0" vertex="1">
          <mxGeometry x="1" relative="1" as="geometry" />
        </mxCell>
        <mxCell id="xE5BTWYlB8bozgJy7pTg-110" value="" style="endArrow=none;html=1;rounded=0;exitX=1;exitY=0.5;exitDx=0;exitDy=0;entryX=0;entryY=0.5;entryDx=0;entryDy=0;" parent="1" source="xE5BTWYlB8bozgJy7pTg-85" target="xE5BTWYlB8bozgJy7pTg-87" edge="1">
          <mxGeometry relative="1" as="geometry">
            <mxPoint x="195" y="1174" as="sourcePoint" />
            <mxPoint x="195" y="1214" as="targetPoint" />
          </mxGeometry>
        </mxCell>
        <mxCell id="xE5BTWYlB8bozgJy7pTg-111" value="1" style="resizable=0;html=1;whiteSpace=wrap;align=right;verticalAlign=bottom;" parent="xE5BTWYlB8bozgJy7pTg-110" connectable="0" vertex="1">
          <mxGeometry x="1" relative="1" as="geometry" />
        </mxCell>
        <mxCell id="xZixdrP6jCM3io9Tht9j-58" value="&lt;font style=&quot;font-size: 20px;&quot;&gt;&lt;b&gt;A&lt;/b&gt;&lt;/font&gt;" style="rounded=0;whiteSpace=wrap;html=1;fillColor=#d5e8d4;strokeColor=#82b366;" parent="1" vertex="1">
          <mxGeometry x="-619" y="129" width="50" height="50" as="geometry" />
        </mxCell>
        <mxCell id="xZixdrP6jCM3io9Tht9j-59" value="&lt;font size=&quot;1&quot; style=&quot;&quot;&gt;&lt;b style=&quot;font-size: 20px;&quot;&gt;Relaciones Binarias:&lt;/b&gt;&lt;/font&gt;" style="text;strokeColor=none;fillColor=none;align=left;verticalAlign=middle;spacingLeft=4;spacingRight=4;overflow=hidden;points=[[0,0.5],[1,0.5]];portConstraint=eastwest;rotatable=0;whiteSpace=wrap;html=1;" parent="1" vertex="1">
          <mxGeometry x="-614" y="13" width="230" height="30" as="geometry" />
        </mxCell>
        <mxCell id="xZixdrP6jCM3io9Tht9j-60" value="&lt;span style=&quot;font-size: 20px;&quot;&gt;&lt;b&gt;B&lt;/b&gt;&lt;/span&gt;" style="rounded=0;whiteSpace=wrap;html=1;fillColor=#f8cecc;strokeColor=#b85450;" parent="1" vertex="1">
          <mxGeometry x="-429" y="129" width="50" height="50" as="geometry" />
        </mxCell>
        <mxCell id="xZixdrP6jCM3io9Tht9j-61" value="&lt;font style=&quot;font-size: 20px;&quot;&gt;&lt;b&gt;R&lt;/b&gt;&lt;/font&gt;" style="shape=rhombus;perimeter=rhombusPerimeter;whiteSpace=wrap;html=1;align=center;fillColor=#f5f5f5;strokeColor=#666666;fontColor=#333333;" parent="1" vertex="1">
          <mxGeometry x="-529" y="124" width="70" height="60" as="geometry" />
        </mxCell>
        <mxCell id="xZixdrP6jCM3io9Tht9j-62" value="" style="endArrow=none;html=1;rounded=0;exitX=1;exitY=0.5;exitDx=0;exitDy=0;entryX=0;entryY=0.5;entryDx=0;entryDy=0;" parent="1" source="xZixdrP6jCM3io9Tht9j-61" target="xZixdrP6jCM3io9Tht9j-60" edge="1">
          <mxGeometry relative="1" as="geometry">
            <mxPoint x="-349" y="349" as="sourcePoint" />
            <mxPoint x="-189" y="349" as="targetPoint" />
          </mxGeometry>
        </mxCell>
        <mxCell id="xZixdrP6jCM3io9Tht9j-63" value="N" style="resizable=0;html=1;whiteSpace=wrap;align=right;verticalAlign=bottom;" parent="xZixdrP6jCM3io9Tht9j-62" connectable="0" vertex="1">
          <mxGeometry x="1" relative="1" as="geometry" />
        </mxCell>
        <mxCell id="xZixdrP6jCM3io9Tht9j-64" value="" style="endArrow=none;html=1;rounded=0;exitX=1;exitY=0.5;exitDx=0;exitDy=0;entryX=0;entryY=0.5;entryDx=0;entryDy=0;" parent="1" source="xZixdrP6jCM3io9Tht9j-58" target="xZixdrP6jCM3io9Tht9j-61" edge="1">
          <mxGeometry relative="1" as="geometry">
            <mxPoint x="-449" y="164" as="sourcePoint" />
            <mxPoint x="-419" y="164" as="targetPoint" />
          </mxGeometry>
        </mxCell>
        <mxCell id="xZixdrP6jCM3io9Tht9j-65" value="N" style="resizable=0;html=1;whiteSpace=wrap;align=right;verticalAlign=bottom;" parent="xZixdrP6jCM3io9Tht9j-64" connectable="0" vertex="1">
          <mxGeometry x="1" relative="1" as="geometry" />
        </mxCell>
        <mxCell id="xZixdrP6jCM3io9Tht9j-66" value="&lt;b style=&quot;border-color: var(--border-color); font-size: 14px;&quot;&gt;&lt;font color=&quot;#9933ff&quot;&gt;&lt;b style=&quot;border-color: var(--border-color);&quot;&gt;A = &lt;u&gt;a0&lt;/u&gt; + ...&lt;br&gt;&lt;/b&gt;B = &lt;u&gt;b0 &lt;/u&gt;+ ...&lt;br&gt;&lt;/font&gt;&lt;/b&gt;&lt;span style=&quot;font-size: 14px;&quot;&gt;&lt;b&gt;&lt;font color=&quot;#9933ff&quot;&gt;R = &lt;u&gt;a0+b0&lt;/u&gt; + ...&lt;br&gt;&lt;span style=&quot;white-space: pre;&quot;&gt;&#x9;&lt;/span&gt;C.Aj: a0, b0&lt;/font&gt;&lt;br&gt;&lt;/b&gt;&lt;/span&gt;" style="text;strokeColor=none;fillColor=none;align=left;verticalAlign=middle;spacingLeft=4;spacingRight=4;overflow=hidden;points=[[0,0.5],[1,0.5]];portConstraint=eastwest;rotatable=0;whiteSpace=wrap;html=1;" parent="1" vertex="1">
          <mxGeometry x="-618" y="196" width="129" height="80" as="geometry" />
        </mxCell>
        <mxCell id="xZixdrP6jCM3io9Tht9j-67" value="&lt;font style=&quot;font-size: 20px;&quot;&gt;&lt;b&gt;A&lt;/b&gt;&lt;/font&gt;" style="rounded=0;whiteSpace=wrap;html=1;fillColor=#d5e8d4;strokeColor=#82b366;" parent="1" vertex="1">
          <mxGeometry x="-289" y="134" width="50" height="50" as="geometry" />
        </mxCell>
        <mxCell id="xZixdrP6jCM3io9Tht9j-68" value="&lt;span style=&quot;font-size: 20px;&quot;&gt;&lt;b&gt;B&lt;/b&gt;&lt;/span&gt;" style="rounded=0;whiteSpace=wrap;html=1;fillColor=#f8cecc;strokeColor=#b85450;" parent="1" vertex="1">
          <mxGeometry x="-99" y="134" width="50" height="50" as="geometry" />
        </mxCell>
        <mxCell id="xZixdrP6jCM3io9Tht9j-69" value="&lt;font style=&quot;font-size: 20px;&quot;&gt;&lt;b&gt;R&lt;/b&gt;&lt;/font&gt;" style="shape=rhombus;perimeter=rhombusPerimeter;whiteSpace=wrap;html=1;align=center;fillColor=#f5f5f5;strokeColor=#666666;fontColor=#333333;" parent="1" vertex="1">
          <mxGeometry x="-199" y="129" width="70" height="60" as="geometry" />
        </mxCell>
        <mxCell id="xZixdrP6jCM3io9Tht9j-70" value="&lt;font color=&quot;#9933ff&quot; style=&quot;font-size: 14px;&quot;&gt;&lt;b&gt;&lt;font style=&quot;font-size: 14px;&quot;&gt;&lt;span style=&quot;border-color: var(--border-color);&quot;&gt;&lt;span style=&quot;border-color: var(--border-color);&quot;&gt;A = &lt;u style=&quot;&quot;&gt;a0&lt;/u&gt; + ...&lt;br&gt;&lt;/span&gt;B = &lt;u style=&quot;&quot;&gt;b0 &lt;/u&gt;+ ...&lt;br&gt;&lt;/span&gt;R = &lt;u&gt;a0+b0&lt;/u&gt; + ...&lt;br&gt;&lt;span style=&quot;white-space: pre;&quot;&gt;&#x9;&lt;/span&gt;C.Aj: a0, b0&lt;br&gt;&lt;span style=&quot;line-height: 107%;&quot;&gt;ASERCIÓN 1:&lt;/span&gt;&lt;span style=&quot;font-family: Arial, sans-serif;&quot;&gt;&amp;nbsp;A&amp;nbsp;&lt;/span&gt;&lt;span style=&quot;font-family: &amp;quot;Cambria Math&amp;quot;, serif;&quot;&gt;⊆&lt;/span&gt;&lt;span style=&quot;line-height: 107%;&quot;&gt;&amp;nbsp;R&lt;br&gt;&lt;/span&gt;&lt;/font&gt;ASERCIÓN 2:&lt;span style=&quot;border-color: var(--border-color); font-family: Arial, sans-serif;&quot;&gt;&amp;nbsp;B&amp;nbsp;&lt;/span&gt;&lt;span style=&quot;border-color: var(--border-color); font-family: &amp;quot;Cambria Math&amp;quot;, serif;&quot;&gt;⊆&lt;/span&gt;&lt;span style=&quot;border-color: var(--border-color); line-height: 16.05px;&quot;&gt;&amp;nbsp;R&lt;/span&gt;&lt;/b&gt;&lt;/font&gt;&lt;span style=&quot;font-size: 14px;&quot;&gt;&lt;b&gt;&lt;br&gt;&lt;/b&gt;&lt;/span&gt;" style="text;strokeColor=none;fillColor=none;align=left;verticalAlign=middle;spacingLeft=4;spacingRight=4;overflow=hidden;points=[[0,0.5],[1,0.5]];portConstraint=eastwest;rotatable=0;whiteSpace=wrap;html=1;" parent="1" vertex="1">
          <mxGeometry x="-288" y="196" width="169" height="115" as="geometry" />
        </mxCell>
        <mxCell id="xZixdrP6jCM3io9Tht9j-71" value="" style="shape=link;html=1;rounded=0;exitX=1;exitY=0.5;exitDx=0;exitDy=0;" parent="1" source="xZixdrP6jCM3io9Tht9j-67" target="xZixdrP6jCM3io9Tht9j-69" edge="1">
          <mxGeometry relative="1" as="geometry">
            <mxPoint x="-349" y="349" as="sourcePoint" />
            <mxPoint x="-189" y="349" as="targetPoint" />
          </mxGeometry>
        </mxCell>
        <mxCell id="xZixdrP6jCM3io9Tht9j-72" value="N" style="resizable=0;html=1;whiteSpace=wrap;align=right;verticalAlign=bottom;" parent="xZixdrP6jCM3io9Tht9j-71" connectable="0" vertex="1">
          <mxGeometry x="1" relative="1" as="geometry" />
        </mxCell>
        <mxCell id="xZixdrP6jCM3io9Tht9j-73" value="" style="shape=link;html=1;rounded=0;exitX=1;exitY=0.5;exitDx=0;exitDy=0;entryX=0;entryY=0.5;entryDx=0;entryDy=0;" parent="1" source="xZixdrP6jCM3io9Tht9j-69" target="xZixdrP6jCM3io9Tht9j-68" edge="1">
          <mxGeometry relative="1" as="geometry">
            <mxPoint x="-229" y="169" as="sourcePoint" />
            <mxPoint x="-189" y="169" as="targetPoint" />
          </mxGeometry>
        </mxCell>
        <mxCell id="xZixdrP6jCM3io9Tht9j-74" value="N" style="resizable=0;html=1;whiteSpace=wrap;align=right;verticalAlign=bottom;" parent="xZixdrP6jCM3io9Tht9j-73" connectable="0" vertex="1">
          <mxGeometry x="1" relative="1" as="geometry" />
        </mxCell>
        <mxCell id="xZixdrP6jCM3io9Tht9j-75" value="&lt;font style=&quot;font-size: 20px;&quot;&gt;&lt;b&gt;A&lt;/b&gt;&lt;/font&gt;" style="rounded=0;whiteSpace=wrap;html=1;fillColor=#d5e8d4;strokeColor=#82b366;" parent="1" vertex="1">
          <mxGeometry x="-620" y="356.5" width="50" height="50" as="geometry" />
        </mxCell>
        <mxCell id="xZixdrP6jCM3io9Tht9j-76" value="&lt;span style=&quot;font-size: 20px;&quot;&gt;&lt;b&gt;B&lt;/b&gt;&lt;/span&gt;" style="rounded=0;whiteSpace=wrap;html=1;fillColor=#f8cecc;strokeColor=#b85450;" parent="1" vertex="1">
          <mxGeometry x="-430" y="356.5" width="50" height="50" as="geometry" />
        </mxCell>
        <mxCell id="xZixdrP6jCM3io9Tht9j-77" value="&lt;font style=&quot;font-size: 20px;&quot;&gt;&lt;b&gt;R&lt;/b&gt;&lt;/font&gt;" style="shape=rhombus;perimeter=rhombusPerimeter;whiteSpace=wrap;html=1;align=center;fillColor=#f5f5f5;strokeColor=#666666;fontColor=#333333;" parent="1" vertex="1">
          <mxGeometry x="-530" y="351.5" width="70" height="60" as="geometry" />
        </mxCell>
        <mxCell id="xZixdrP6jCM3io9Tht9j-78" value="" style="endArrow=none;html=1;rounded=0;exitX=1;exitY=0.5;exitDx=0;exitDy=0;entryX=0;entryY=0.5;entryDx=0;entryDy=0;" parent="1" source="xZixdrP6jCM3io9Tht9j-77" target="xZixdrP6jCM3io9Tht9j-76" edge="1">
          <mxGeometry relative="1" as="geometry">
            <mxPoint x="-350" y="576.5" as="sourcePoint" />
            <mxPoint x="-190" y="576.5" as="targetPoint" />
          </mxGeometry>
        </mxCell>
        <mxCell id="xZixdrP6jCM3io9Tht9j-79" value="N" style="resizable=0;html=1;whiteSpace=wrap;align=right;verticalAlign=bottom;" parent="xZixdrP6jCM3io9Tht9j-78" connectable="0" vertex="1">
          <mxGeometry x="1" relative="1" as="geometry" />
        </mxCell>
        <mxCell id="xZixdrP6jCM3io9Tht9j-80" value="&lt;b style=&quot;border-color: var(--border-color); font-size: 14px;&quot;&gt;&lt;font color=&quot;#9933ff&quot;&gt;&lt;b style=&quot;border-color: var(--border-color);&quot;&gt;A = &lt;u&gt;a0&lt;/u&gt; + ...&lt;br&gt;&lt;/b&gt;B = &lt;u&gt;b0 &lt;/u&gt;+ a0 ...&lt;br&gt;&lt;/font&gt;&lt;/b&gt;&lt;span style=&quot;font-size: 14px;&quot;&gt;&lt;b&gt;&lt;font color=&quot;#9933ff&quot;&gt;&lt;span style=&quot;white-space: pre;&quot;&gt;&#x9;&lt;/span&gt;C.Aj: a0&lt;/font&gt;&lt;br&gt;&lt;/b&gt;&lt;/span&gt;" style="text;strokeColor=none;fillColor=none;align=left;verticalAlign=middle;spacingLeft=4;spacingRight=4;overflow=hidden;points=[[0,0.5],[1,0.5]];portConstraint=eastwest;rotatable=0;whiteSpace=wrap;html=1;" parent="1" vertex="1">
          <mxGeometry x="-619" y="426.5" width="119" height="55" as="geometry" />
        </mxCell>
        <mxCell id="xZixdrP6jCM3io9Tht9j-81" value="&lt;font style=&quot;font-size: 20px;&quot;&gt;&lt;b&gt;A&lt;/b&gt;&lt;/font&gt;" style="rounded=0;whiteSpace=wrap;html=1;fillColor=#d5e8d4;strokeColor=#82b366;" parent="1" vertex="1">
          <mxGeometry x="-290" y="361.5" width="50" height="50" as="geometry" />
        </mxCell>
        <mxCell id="xZixdrP6jCM3io9Tht9j-82" value="&lt;span style=&quot;font-size: 20px;&quot;&gt;&lt;b&gt;B&lt;/b&gt;&lt;/span&gt;" style="rounded=0;whiteSpace=wrap;html=1;fillColor=#f8cecc;strokeColor=#b85450;" parent="1" vertex="1">
          <mxGeometry x="-100" y="361.5" width="50" height="50" as="geometry" />
        </mxCell>
        <mxCell id="xZixdrP6jCM3io9Tht9j-83" value="&lt;font style=&quot;font-size: 20px;&quot;&gt;&lt;b&gt;R&lt;/b&gt;&lt;/font&gt;" style="shape=rhombus;perimeter=rhombusPerimeter;whiteSpace=wrap;html=1;align=center;fillColor=#f5f5f5;strokeColor=#666666;fontColor=#333333;" parent="1" vertex="1">
          <mxGeometry x="-200" y="356.5" width="70" height="60" as="geometry" />
        </mxCell>
        <mxCell id="xZixdrP6jCM3io9Tht9j-84" value="&lt;font style=&quot;font-size: 14px;&quot;&gt;&lt;b&gt;&lt;span style=&quot;border-color: var(--border-color);&quot;&gt;&lt;font style=&quot;border-color: var(--border-color); font-size: 14px;&quot; color=&quot;#9933ff&quot;&gt;&lt;span style=&quot;border-color: var(--border-color);&quot;&gt;A =&amp;nbsp;&lt;u style=&quot;border-color: var(--border-color);&quot;&gt;a0&lt;/u&gt;&amp;nbsp;+ ...&lt;br style=&quot;border-color: var(--border-color);&quot;&gt;&lt;/span&gt;B =&amp;nbsp;&lt;u style=&quot;border-color: var(--border-color);&quot;&gt;b0&amp;nbsp;&lt;/u&gt;+ a0 ...&lt;br style=&quot;border-color: var(--border-color);&quot;&gt;&lt;/font&gt;&lt;/span&gt;&lt;span style=&quot;border-color: var(--border-color);&quot;&gt;&lt;font style=&quot;border-color: var(--border-color); font-size: 14px;&quot; color=&quot;#9933ff&quot;&gt;&lt;span style=&quot;white-space: pre;&quot;&gt;&#x9;&lt;/span&gt;C.Aj: a0&lt;br&gt;&lt;/font&gt;&lt;/span&gt;&lt;span style=&quot;border-color: var(--border-color);&quot;&gt;&lt;/span&gt;&lt;font color=&quot;#9933ff&quot; style=&quot;font-size: 14px;&quot;&gt;&lt;font style=&quot;font-size: 14px;&quot;&gt;&lt;span style=&quot;white-space: pre;&quot;&gt;&#x9;&lt;/span&gt;NotNull: a0&lt;br&gt;&lt;span style=&quot;line-height: 107%;&quot;&gt;ASERCIÓN 1:&lt;/span&gt;&lt;span style=&quot;font-family: Arial, sans-serif;&quot;&gt;&amp;nbsp;A&amp;nbsp;&lt;/span&gt;&lt;span style=&quot;font-family: &amp;quot;Cambria Math&amp;quot;, serif;&quot;&gt;⊆&lt;/span&gt;&lt;span style=&quot;line-height: 107%;&quot;&gt;&amp;nbsp;B&lt;/span&gt;&lt;/font&gt;&lt;/font&gt;&lt;/b&gt;&lt;/font&gt;&lt;span style=&quot;font-size: 14px;&quot;&gt;&lt;b&gt;&lt;br&gt;&lt;/b&gt;&lt;/span&gt;" style="text;strokeColor=none;fillColor=none;align=left;verticalAlign=middle;spacingLeft=4;spacingRight=4;overflow=hidden;points=[[0,0.5],[1,0.5]];portConstraint=eastwest;rotatable=0;whiteSpace=wrap;html=1;" parent="1" vertex="1">
          <mxGeometry x="-289" y="424.5" width="149" height="100" as="geometry" />
        </mxCell>
        <mxCell id="xZixdrP6jCM3io9Tht9j-85" value="" style="shape=link;html=1;rounded=0;exitX=1;exitY=0.5;exitDx=0;exitDy=0;entryX=0;entryY=0.5;entryDx=0;entryDy=0;" parent="1" source="xZixdrP6jCM3io9Tht9j-83" target="xZixdrP6jCM3io9Tht9j-82" edge="1">
          <mxGeometry relative="1" as="geometry">
            <mxPoint x="-230" y="396.5" as="sourcePoint" />
            <mxPoint x="-190" y="396.5" as="targetPoint" />
          </mxGeometry>
        </mxCell>
        <mxCell id="xZixdrP6jCM3io9Tht9j-86" value="N" style="resizable=0;html=1;whiteSpace=wrap;align=right;verticalAlign=bottom;" parent="xZixdrP6jCM3io9Tht9j-85" connectable="0" vertex="1">
          <mxGeometry x="1" relative="1" as="geometry" />
        </mxCell>
        <mxCell id="xZixdrP6jCM3io9Tht9j-87" value="" style="endArrow=none;html=1;rounded=0;exitX=1;exitY=0.5;exitDx=0;exitDy=0;entryX=0;entryY=0.5;entryDx=0;entryDy=0;" parent="1" source="xZixdrP6jCM3io9Tht9j-75" target="xZixdrP6jCM3io9Tht9j-77" edge="1">
          <mxGeometry relative="1" as="geometry">
            <mxPoint x="-350" y="361.5" as="sourcePoint" />
            <mxPoint x="-190" y="361.5" as="targetPoint" />
          </mxGeometry>
        </mxCell>
        <mxCell id="xZixdrP6jCM3io9Tht9j-88" value="1" style="resizable=0;html=1;whiteSpace=wrap;align=right;verticalAlign=bottom;" parent="xZixdrP6jCM3io9Tht9j-87" connectable="0" vertex="1">
          <mxGeometry x="1" relative="1" as="geometry" />
        </mxCell>
        <mxCell id="xZixdrP6jCM3io9Tht9j-89" value="" style="shape=link;html=1;rounded=0;entryX=0;entryY=0.5;entryDx=0;entryDy=0;exitX=1;exitY=0.5;exitDx=0;exitDy=0;" parent="1" source="xZixdrP6jCM3io9Tht9j-81" target="xZixdrP6jCM3io9Tht9j-83" edge="1">
          <mxGeometry relative="1" as="geometry">
            <mxPoint x="-240" y="381.5" as="sourcePoint" />
            <mxPoint x="-190" y="361.5" as="targetPoint" />
          </mxGeometry>
        </mxCell>
        <mxCell id="xZixdrP6jCM3io9Tht9j-90" value="1" style="resizable=0;html=1;whiteSpace=wrap;align=right;verticalAlign=bottom;" parent="xZixdrP6jCM3io9Tht9j-89" connectable="0" vertex="1">
          <mxGeometry x="1" relative="1" as="geometry" />
        </mxCell>
        <mxCell id="xZixdrP6jCM3io9Tht9j-91" value="&lt;font style=&quot;font-size: 20px;&quot;&gt;&lt;b&gt;A&lt;/b&gt;&lt;/font&gt;" style="rounded=0;whiteSpace=wrap;html=1;fillColor=#d5e8d4;strokeColor=#82b366;" parent="1" vertex="1">
          <mxGeometry x="-620" y="564.5" width="50" height="50" as="geometry" />
        </mxCell>
        <mxCell id="xZixdrP6jCM3io9Tht9j-92" value="&lt;span style=&quot;font-size: 20px;&quot;&gt;&lt;b&gt;B&lt;/b&gt;&lt;/span&gt;" style="rounded=0;whiteSpace=wrap;html=1;fillColor=#f8cecc;strokeColor=#b85450;" parent="1" vertex="1">
          <mxGeometry x="-430" y="564.5" width="50" height="50" as="geometry" />
        </mxCell>
        <mxCell id="xZixdrP6jCM3io9Tht9j-93" value="&lt;font style=&quot;font-size: 20px;&quot;&gt;&lt;b&gt;R&lt;/b&gt;&lt;/font&gt;" style="shape=rhombus;perimeter=rhombusPerimeter;whiteSpace=wrap;html=1;align=center;fillColor=#f5f5f5;strokeColor=#666666;fontColor=#333333;" parent="1" vertex="1">
          <mxGeometry x="-530" y="559.5" width="70" height="60" as="geometry" />
        </mxCell>
        <mxCell id="xZixdrP6jCM3io9Tht9j-94" value="&lt;b style=&quot;border-color: var(--border-color); font-size: 14px;&quot;&gt;&lt;font color=&quot;#9933ff&quot;&gt;&lt;b style=&quot;border-color: var(--border-color);&quot;&gt;A = &lt;u&gt;a0&lt;/u&gt; + ...&lt;br&gt;&lt;/b&gt;B = &lt;u&gt;b0 &lt;/u&gt;+ a0 ...&lt;br&gt;&lt;/font&gt;&lt;/b&gt;&lt;span style=&quot;font-size: 14px;&quot;&gt;&lt;b&gt;&lt;font color=&quot;#9933ff&quot;&gt;&lt;span style=&quot;white-space: pre;&quot;&gt;&#x9;&lt;/span&gt;C.Aj: a0&lt;/font&gt;&lt;br&gt;&lt;/b&gt;&lt;/span&gt;" style="text;strokeColor=none;fillColor=none;align=left;verticalAlign=middle;spacingLeft=4;spacingRight=4;overflow=hidden;points=[[0,0.5],[1,0.5]];portConstraint=eastwest;rotatable=0;whiteSpace=wrap;html=1;" parent="1" vertex="1">
          <mxGeometry x="-619" y="634.5" width="119" height="55" as="geometry" />
        </mxCell>
        <mxCell id="xZixdrP6jCM3io9Tht9j-95" value="&lt;font style=&quot;font-size: 20px;&quot;&gt;&lt;b&gt;A&lt;/b&gt;&lt;/font&gt;" style="rounded=0;whiteSpace=wrap;html=1;fillColor=#d5e8d4;strokeColor=#82b366;" parent="1" vertex="1">
          <mxGeometry x="-290" y="569.5" width="50" height="50" as="geometry" />
        </mxCell>
        <mxCell id="xZixdrP6jCM3io9Tht9j-96" value="&lt;span style=&quot;font-size: 20px;&quot;&gt;&lt;b&gt;B&lt;/b&gt;&lt;/span&gt;" style="rounded=0;whiteSpace=wrap;html=1;fillColor=#f8cecc;strokeColor=#b85450;" parent="1" vertex="1">
          <mxGeometry x="-100" y="569.5" width="50" height="50" as="geometry" />
        </mxCell>
        <mxCell id="xZixdrP6jCM3io9Tht9j-97" value="&lt;font style=&quot;font-size: 20px;&quot;&gt;&lt;b&gt;R&lt;/b&gt;&lt;/font&gt;" style="shape=rhombus;perimeter=rhombusPerimeter;whiteSpace=wrap;html=1;align=center;fillColor=#f5f5f5;strokeColor=#666666;fontColor=#333333;" parent="1" vertex="1">
          <mxGeometry x="-200" y="564.5" width="70" height="60" as="geometry" />
        </mxCell>
        <mxCell id="xZixdrP6jCM3io9Tht9j-98" value="&lt;font style=&quot;font-size: 14px;&quot;&gt;&lt;b&gt;&lt;span style=&quot;border-color: var(--border-color);&quot;&gt;&lt;span style=&quot;border-color: var(--border-color);&quot;&gt;&lt;font style=&quot;border-color: var(--border-color);&quot; color=&quot;#9933ff&quot;&gt;A = &lt;u style=&quot;&quot;&gt;a0 &lt;/u&gt;+ b0 + ...&lt;br&gt;&lt;span style=&quot;white-space: pre;&quot;&gt;&#x9;&lt;/span&gt;C.Aj: b0&lt;br&gt;&lt;/font&gt;&lt;/span&gt;&lt;font style=&quot;border-color: var(--border-color);&quot; color=&quot;#9933ff&quot;&gt;&lt;font style=&quot;border-color: var(--border-color);&quot;&gt;&lt;span style=&quot;white-space: pre;&quot;&gt;&#x9;&lt;/span&gt;NotNull: b0&lt;/font&gt;&lt;/font&gt;&lt;/span&gt;&lt;span style=&quot;border-color: var(--border-color);&quot;&gt;&lt;font style=&quot;border-color: var(--border-color); font-size: 14px;&quot; color=&quot;#9933ff&quot;&gt;&lt;span style=&quot;border-color: var(--border-color);&quot;&gt;&lt;br style=&quot;border-color: var(--border-color);&quot;&gt;&lt;/span&gt;B =&amp;nbsp;&lt;u style=&quot;border-color: var(--border-color);&quot;&gt;b0&amp;nbsp;&lt;/u&gt;+ ...&lt;/font&gt;&lt;/span&gt;&lt;/b&gt;&lt;font color=&quot;#9933ff&quot; style=&quot;font-weight: bold; font-size: 14px;&quot;&gt;&lt;font style=&quot;font-size: 14px;&quot;&gt;&lt;br&gt;&lt;/font&gt;&lt;/font&gt;&lt;/font&gt;&lt;span style=&quot;font-size: 14px;&quot;&gt;&lt;b&gt;&lt;br&gt;&lt;/b&gt;&lt;/span&gt;" style="text;strokeColor=none;fillColor=none;align=left;verticalAlign=middle;spacingLeft=4;spacingRight=4;overflow=hidden;points=[[0,0.5],[1,0.5]];portConstraint=eastwest;rotatable=0;whiteSpace=wrap;html=1;" parent="1" vertex="1">
          <mxGeometry x="-289" y="638.5" width="159" height="93" as="geometry" />
        </mxCell>
        <mxCell id="xZixdrP6jCM3io9Tht9j-99" value="" style="endArrow=none;html=1;rounded=0;exitX=1;exitY=0.5;exitDx=0;exitDy=0;entryX=0;entryY=0.5;entryDx=0;entryDy=0;" parent="1" source="xZixdrP6jCM3io9Tht9j-91" target="xZixdrP6jCM3io9Tht9j-93" edge="1">
          <mxGeometry relative="1" as="geometry">
            <mxPoint x="-350" y="569.5" as="sourcePoint" />
            <mxPoint x="-190" y="569.5" as="targetPoint" />
          </mxGeometry>
        </mxCell>
        <mxCell id="xZixdrP6jCM3io9Tht9j-100" value="1" style="resizable=0;html=1;whiteSpace=wrap;align=right;verticalAlign=bottom;" parent="xZixdrP6jCM3io9Tht9j-99" connectable="0" vertex="1">
          <mxGeometry x="1" relative="1" as="geometry" />
        </mxCell>
        <mxCell id="xZixdrP6jCM3io9Tht9j-101" value="" style="shape=link;html=1;rounded=0;entryX=0;entryY=0.5;entryDx=0;entryDy=0;exitX=1;exitY=0.5;exitDx=0;exitDy=0;" parent="1" source="xZixdrP6jCM3io9Tht9j-95" target="xZixdrP6jCM3io9Tht9j-97" edge="1">
          <mxGeometry relative="1" as="geometry">
            <mxPoint x="-240" y="589.5" as="sourcePoint" />
            <mxPoint x="-190" y="569.5" as="targetPoint" />
          </mxGeometry>
        </mxCell>
        <mxCell id="xZixdrP6jCM3io9Tht9j-102" value="1" style="resizable=0;html=1;whiteSpace=wrap;align=right;verticalAlign=bottom;" parent="xZixdrP6jCM3io9Tht9j-101" connectable="0" vertex="1">
          <mxGeometry x="1" relative="1" as="geometry" />
        </mxCell>
        <mxCell id="xZixdrP6jCM3io9Tht9j-103" value="" style="endArrow=none;html=1;rounded=0;exitX=1;exitY=0.5;exitDx=0;exitDy=0;entryX=0;entryY=0.5;entryDx=0;entryDy=0;" parent="1" source="xZixdrP6jCM3io9Tht9j-93" target="xZixdrP6jCM3io9Tht9j-92" edge="1">
          <mxGeometry relative="1" as="geometry">
            <mxPoint x="-560" y="599.5" as="sourcePoint" />
            <mxPoint x="-520" y="599.5" as="targetPoint" />
          </mxGeometry>
        </mxCell>
        <mxCell id="xZixdrP6jCM3io9Tht9j-104" value="1" style="resizable=0;html=1;whiteSpace=wrap;align=right;verticalAlign=bottom;" parent="xZixdrP6jCM3io9Tht9j-103" connectable="0" vertex="1">
          <mxGeometry x="1" relative="1" as="geometry" />
        </mxCell>
        <mxCell id="xZixdrP6jCM3io9Tht9j-105" value="" style="endArrow=none;html=1;rounded=0;exitX=1;exitY=0.5;exitDx=0;exitDy=0;entryX=0;entryY=0.5;entryDx=0;entryDy=0;" parent="1" source="xZixdrP6jCM3io9Tht9j-97" target="xZixdrP6jCM3io9Tht9j-96" edge="1">
          <mxGeometry relative="1" as="geometry">
            <mxPoint x="-450" y="599.5" as="sourcePoint" />
            <mxPoint x="-420" y="599.5" as="targetPoint" />
          </mxGeometry>
        </mxCell>
        <mxCell id="xZixdrP6jCM3io9Tht9j-106" value="1" style="resizable=0;html=1;whiteSpace=wrap;align=right;verticalAlign=bottom;" parent="xZixdrP6jCM3io9Tht9j-105" connectable="0" vertex="1">
          <mxGeometry x="1" relative="1" as="geometry" />
        </mxCell>
        <mxCell id="xZixdrP6jCM3io9Tht9j-107" value="&lt;font style=&quot;font-size: 20px;&quot;&gt;&lt;b&gt;A&lt;/b&gt;&lt;/font&gt;" style="rounded=0;whiteSpace=wrap;html=1;fillColor=#d5e8d4;strokeColor=#82b366;" parent="1" vertex="1">
          <mxGeometry x="-289" y="736.5" width="50" height="50" as="geometry" />
        </mxCell>
        <mxCell id="xZixdrP6jCM3io9Tht9j-108" value="&lt;span style=&quot;font-size: 20px;&quot;&gt;&lt;b&gt;B&lt;/b&gt;&lt;/span&gt;" style="rounded=0;whiteSpace=wrap;html=1;fillColor=#f8cecc;strokeColor=#b85450;" parent="1" vertex="1">
          <mxGeometry x="-99" y="736.5" width="50" height="50" as="geometry" />
        </mxCell>
        <mxCell id="xZixdrP6jCM3io9Tht9j-109" value="&lt;font style=&quot;font-size: 20px;&quot;&gt;&lt;b&gt;R&lt;/b&gt;&lt;/font&gt;" style="shape=rhombus;perimeter=rhombusPerimeter;whiteSpace=wrap;html=1;align=center;fillColor=#f5f5f5;strokeColor=#666666;fontColor=#333333;" parent="1" vertex="1">
          <mxGeometry x="-199" y="731.5" width="70" height="60" as="geometry" />
        </mxCell>
        <mxCell id="xZixdrP6jCM3io9Tht9j-110" value="&lt;font style=&quot;font-size: 14px;&quot;&gt;&lt;b&gt;&lt;span style=&quot;border-color: var(--border-color);&quot;&gt;&lt;span style=&quot;border-color: var(--border-color);&quot;&gt;&lt;font style=&quot;border-color: var(--border-color);&quot; color=&quot;#9933ff&quot;&gt;R = &lt;u style=&quot;&quot;&gt;a0 &lt;/u&gt;+ b0 + ...&lt;br&gt;&lt;span style=&quot;white-space: pre;&quot;&gt;&#x9;&lt;/span&gt;C.Aj: b0&lt;br&gt;&lt;/font&gt;&lt;/span&gt;&lt;font style=&quot;border-color: var(--border-color);&quot; color=&quot;#9933ff&quot;&gt;&lt;font style=&quot;border-color: var(--border-color);&quot;&gt;&lt;span style=&quot;white-space: pre;&quot;&gt;&#x9;&lt;/span&gt;NotNull: b0&lt;/font&gt;&lt;/font&gt;&lt;/span&gt;&lt;span style=&quot;border-color: var(--border-color);&quot;&gt;&lt;font style=&quot;border-color: var(--border-color); font-size: 14px;&quot; color=&quot;#9933ff&quot;&gt;&lt;span style=&quot;border-color: var(--border-color);&quot;&gt;&lt;br style=&quot;border-color: var(--border-color);&quot;&gt;&lt;/span&gt;&lt;/font&gt;&lt;/span&gt;&lt;/b&gt;&lt;font color=&quot;#9933ff&quot; style=&quot;font-weight: bold; font-size: 14px;&quot;&gt;&lt;font style=&quot;font-size: 14px;&quot;&gt;&lt;br&gt;&lt;/font&gt;&lt;/font&gt;&lt;/font&gt;&lt;span style=&quot;font-size: 14px;&quot;&gt;&lt;b&gt;&lt;br&gt;&lt;/b&gt;&lt;/span&gt;" style="text;strokeColor=none;fillColor=none;align=left;verticalAlign=middle;spacingLeft=4;spacingRight=4;overflow=hidden;points=[[0,0.5],[1,0.5]];portConstraint=eastwest;rotatable=0;whiteSpace=wrap;html=1;" parent="1" vertex="1">
          <mxGeometry x="-288" y="805.5" width="159" height="56" as="geometry" />
        </mxCell>
        <mxCell id="xZixdrP6jCM3io9Tht9j-111" value="" style="shape=link;html=1;rounded=0;entryX=0;entryY=0.5;entryDx=0;entryDy=0;exitX=1;exitY=0.5;exitDx=0;exitDy=0;" parent="1" source="xZixdrP6jCM3io9Tht9j-107" target="xZixdrP6jCM3io9Tht9j-109" edge="1">
          <mxGeometry relative="1" as="geometry">
            <mxPoint x="-230" y="604.5" as="sourcePoint" />
            <mxPoint x="-190" y="604.5" as="targetPoint" />
          </mxGeometry>
        </mxCell>
        <mxCell id="xZixdrP6jCM3io9Tht9j-112" value="1" style="resizable=0;html=1;whiteSpace=wrap;align=right;verticalAlign=bottom;" parent="xZixdrP6jCM3io9Tht9j-111" connectable="0" vertex="1">
          <mxGeometry x="1" relative="1" as="geometry" />
        </mxCell>
        <mxCell id="xZixdrP6jCM3io9Tht9j-113" value="" style="shape=link;html=1;rounded=0;entryX=0;entryY=0.5;entryDx=0;entryDy=0;exitX=1;exitY=0.5;exitDx=0;exitDy=0;" parent="1" source="xZixdrP6jCM3io9Tht9j-109" target="xZixdrP6jCM3io9Tht9j-108" edge="1">
          <mxGeometry relative="1" as="geometry">
            <mxPoint x="-229" y="771.5" as="sourcePoint" />
            <mxPoint x="-189" y="771.5" as="targetPoint" />
          </mxGeometry>
        </mxCell>
        <mxCell id="xZixdrP6jCM3io9Tht9j-114" value="1" style="resizable=0;html=1;whiteSpace=wrap;align=right;verticalAlign=bottom;" parent="xZixdrP6jCM3io9Tht9j-113" connectable="0" vertex="1">
          <mxGeometry x="1" relative="1" as="geometry" />
        </mxCell>
        <mxCell id="xZixdrP6jCM3io9Tht9j-115" value="&lt;font size=&quot;1&quot; style=&quot;&quot;&gt;&lt;b style=&quot;font-size: 20px;&quot;&gt;Relaciones Unarias:&lt;/b&gt;&lt;/font&gt;" style="text;strokeColor=none;fillColor=none;align=left;verticalAlign=middle;spacingLeft=4;spacingRight=4;overflow=hidden;points=[[0,0.5],[1,0.5]];portConstraint=eastwest;rotatable=0;whiteSpace=wrap;html=1;" parent="1" vertex="1">
          <mxGeometry x="-1541" y="13" width="230" height="30" as="geometry" />
        </mxCell>
        <mxCell id="xZixdrP6jCM3io9Tht9j-116" value="&lt;font style=&quot;font-size: 20px;&quot;&gt;&lt;b&gt;A&lt;/b&gt;&lt;/font&gt;" style="rounded=0;whiteSpace=wrap;html=1;fillColor=#d5e8d4;strokeColor=#82b366;" parent="1" vertex="1">
          <mxGeometry x="-1562" y="125" width="50" height="50" as="geometry" />
        </mxCell>
        <mxCell id="xZixdrP6jCM3io9Tht9j-117" value="&lt;font style=&quot;font-size: 20px;&quot;&gt;&lt;b&gt;R&lt;/b&gt;&lt;/font&gt;" style="shape=rhombus;perimeter=rhombusPerimeter;whiteSpace=wrap;html=1;align=center;fillColor=#f5f5f5;strokeColor=#666666;fontColor=#333333;" parent="1" vertex="1">
          <mxGeometry x="-1472" y="120" width="70" height="60" as="geometry" />
        </mxCell>
        <mxCell id="xZixdrP6jCM3io9Tht9j-118" value="" style="endArrow=none;html=1;rounded=0;exitX=1;exitY=0.5;exitDx=0;exitDy=0;entryX=0;entryY=0.5;entryDx=0;entryDy=0;" parent="1" source="xZixdrP6jCM3io9Tht9j-116" target="xZixdrP6jCM3io9Tht9j-117" edge="1">
          <mxGeometry relative="1" as="geometry">
            <mxPoint x="-1392" y="160" as="sourcePoint" />
            <mxPoint x="-1362" y="160" as="targetPoint" />
          </mxGeometry>
        </mxCell>
        <mxCell id="xZixdrP6jCM3io9Tht9j-119" value="N" style="resizable=0;html=1;whiteSpace=wrap;align=right;verticalAlign=bottom;" parent="xZixdrP6jCM3io9Tht9j-118" connectable="0" vertex="1">
          <mxGeometry x="1" relative="1" as="geometry" />
        </mxCell>
        <mxCell id="xZixdrP6jCM3io9Tht9j-120" value="&lt;b style=&quot;border-color: var(--border-color); font-size: 14px;&quot;&gt;&lt;font color=&quot;#9933ff&quot;&gt;&lt;b style=&quot;border-color: var(--border-color);&quot;&gt;A = &lt;u&gt;a0&lt;/u&gt; + ...&lt;br&gt;&lt;/b&gt;&lt;/font&gt;&lt;/b&gt;&lt;span style=&quot;font-size: 14px;&quot;&gt;&lt;b&gt;&lt;font color=&quot;#9933ff&quot;&gt;R = &lt;u&gt;a0+rol&lt;/u&gt;&amp;nbsp;+ ...&lt;br&gt;&lt;span style=&quot;white-space: pre;&quot;&gt;&#x9;&lt;/span&gt;C.Aj: a0, rol&lt;/font&gt;&lt;br&gt;&lt;/b&gt;&lt;/span&gt;" style="text;strokeColor=none;fillColor=none;align=left;verticalAlign=middle;spacingLeft=4;spacingRight=4;overflow=hidden;points=[[0,0.5],[1,0.5]];portConstraint=eastwest;rotatable=0;whiteSpace=wrap;html=1;" parent="1" vertex="1">
          <mxGeometry x="-1561" y="186" width="129" height="68" as="geometry" />
        </mxCell>
        <mxCell id="xZixdrP6jCM3io9Tht9j-123" value="" style="endArrow=none;html=1;rounded=0;exitX=0.5;exitY=0;exitDx=0;exitDy=0;entryX=0.5;entryY=0;entryDx=0;entryDy=0;" parent="1" source="xZixdrP6jCM3io9Tht9j-116" target="xZixdrP6jCM3io9Tht9j-117" edge="1">
          <mxGeometry relative="1" as="geometry">
            <mxPoint x="-1502" y="160" as="sourcePoint" />
            <mxPoint x="-1462" y="160" as="targetPoint" />
            <Array as="points">
              <mxPoint x="-1537" y="94" />
              <mxPoint x="-1437" y="94" />
            </Array>
          </mxGeometry>
        </mxCell>
        <mxCell id="xZixdrP6jCM3io9Tht9j-124" value="N" style="resizable=0;html=1;whiteSpace=wrap;align=right;verticalAlign=bottom;" parent="xZixdrP6jCM3io9Tht9j-123" connectable="0" vertex="1">
          <mxGeometry x="1" relative="1" as="geometry" />
        </mxCell>
        <mxCell id="xZixdrP6jCM3io9Tht9j-125" value="rol" style="resizable=0;html=1;whiteSpace=wrap;align=right;verticalAlign=bottom;" parent="1" connectable="0" vertex="1">
          <mxGeometry x="-1476" y="95" as="geometry" />
        </mxCell>
        <mxCell id="xZixdrP6jCM3io9Tht9j-127" value="&lt;font style=&quot;font-size: 20px;&quot;&gt;&lt;b&gt;A&lt;/b&gt;&lt;/font&gt;" style="rounded=0;whiteSpace=wrap;html=1;fillColor=#d5e8d4;strokeColor=#82b366;" parent="1" vertex="1">
          <mxGeometry x="-1562" y="351" width="50" height="50" as="geometry" />
        </mxCell>
        <mxCell id="xZixdrP6jCM3io9Tht9j-128" value="&lt;font style=&quot;font-size: 20px;&quot;&gt;&lt;b&gt;R&lt;/b&gt;&lt;/font&gt;" style="shape=rhombus;perimeter=rhombusPerimeter;whiteSpace=wrap;html=1;align=center;fillColor=#f5f5f5;strokeColor=#666666;fontColor=#333333;" parent="1" vertex="1">
          <mxGeometry x="-1472" y="346" width="70" height="60" as="geometry" />
        </mxCell>
        <mxCell id="xZixdrP6jCM3io9Tht9j-129" value="" style="endArrow=none;html=1;rounded=0;exitX=1;exitY=0.5;exitDx=0;exitDy=0;entryX=0;entryY=0.5;entryDx=0;entryDy=0;" parent="1" source="xZixdrP6jCM3io9Tht9j-127" target="xZixdrP6jCM3io9Tht9j-128" edge="1">
          <mxGeometry relative="1" as="geometry">
            <mxPoint x="-1392" y="386" as="sourcePoint" />
            <mxPoint x="-1362" y="386" as="targetPoint" />
          </mxGeometry>
        </mxCell>
        <mxCell id="xZixdrP6jCM3io9Tht9j-130" value="N" style="resizable=0;html=1;whiteSpace=wrap;align=right;verticalAlign=bottom;" parent="xZixdrP6jCM3io9Tht9j-129" connectable="0" vertex="1">
          <mxGeometry x="1" relative="1" as="geometry" />
        </mxCell>
        <mxCell id="xZixdrP6jCM3io9Tht9j-131" value="&lt;b style=&quot;border-color: var(--border-color); font-size: 14px;&quot;&gt;&lt;font color=&quot;#9933ff&quot;&gt;&lt;b style=&quot;border-color: var(--border-color);&quot;&gt;A = &lt;u&gt;a0&lt;/u&gt; + rol + ...&lt;br&gt;&lt;/b&gt;&lt;/font&gt;&lt;/b&gt;&lt;span style=&quot;font-size: 14px;&quot;&gt;&lt;b&gt;&lt;font color=&quot;#9933ff&quot;&gt;&lt;span style=&quot;white-space: pre;&quot;&gt;&#x9;&lt;/span&gt;C.Aj: rol&lt;/font&gt;&lt;br&gt;&lt;/b&gt;&lt;/span&gt;" style="text;strokeColor=none;fillColor=none;align=left;verticalAlign=middle;spacingLeft=4;spacingRight=4;overflow=hidden;points=[[0,0.5],[1,0.5]];portConstraint=eastwest;rotatable=0;whiteSpace=wrap;html=1;" parent="1" vertex="1">
          <mxGeometry x="-1561" y="410" width="129" height="53" as="geometry" />
        </mxCell>
        <mxCell id="xZixdrP6jCM3io9Tht9j-132" value="" style="endArrow=none;html=1;rounded=0;exitX=0.5;exitY=0;exitDx=0;exitDy=0;entryX=0.5;entryY=0;entryDx=0;entryDy=0;" parent="1" source="xZixdrP6jCM3io9Tht9j-127" target="xZixdrP6jCM3io9Tht9j-128" edge="1">
          <mxGeometry relative="1" as="geometry">
            <mxPoint x="-1502" y="386" as="sourcePoint" />
            <mxPoint x="-1462" y="386" as="targetPoint" />
            <Array as="points">
              <mxPoint x="-1537" y="320" />
              <mxPoint x="-1437" y="320" />
            </Array>
          </mxGeometry>
        </mxCell>
        <mxCell id="xZixdrP6jCM3io9Tht9j-133" value="1" style="resizable=0;html=1;whiteSpace=wrap;align=right;verticalAlign=bottom;" parent="xZixdrP6jCM3io9Tht9j-132" connectable="0" vertex="1">
          <mxGeometry x="1" relative="1" as="geometry" />
        </mxCell>
        <mxCell id="xZixdrP6jCM3io9Tht9j-134" value="rol" style="resizable=0;html=1;whiteSpace=wrap;align=right;verticalAlign=bottom;" parent="1" connectable="0" vertex="1">
          <mxGeometry x="-1476" y="321" as="geometry" />
        </mxCell>
        <mxCell id="xZixdrP6jCM3io9Tht9j-135" value="&lt;font style=&quot;font-size: 20px;&quot;&gt;&lt;b&gt;A&lt;/b&gt;&lt;/font&gt;" style="rounded=0;whiteSpace=wrap;html=1;fillColor=#d5e8d4;strokeColor=#82b366;" parent="1" vertex="1">
          <mxGeometry x="-1562" y="557.5" width="50" height="50" as="geometry" />
        </mxCell>
        <mxCell id="xZixdrP6jCM3io9Tht9j-136" value="&lt;font style=&quot;font-size: 20px;&quot;&gt;&lt;b&gt;R&lt;/b&gt;&lt;/font&gt;" style="shape=rhombus;perimeter=rhombusPerimeter;whiteSpace=wrap;html=1;align=center;fillColor=#f5f5f5;strokeColor=#666666;fontColor=#333333;" parent="1" vertex="1">
          <mxGeometry x="-1472" y="552.5" width="70" height="60" as="geometry" />
        </mxCell>
        <mxCell id="xZixdrP6jCM3io9Tht9j-139" value="&lt;b style=&quot;border-color: var(--border-color); font-size: 14px;&quot;&gt;&lt;font color=&quot;#9933ff&quot;&gt;&lt;b style=&quot;border-color: var(--border-color);&quot;&gt;A = &lt;u&gt;a0&lt;/u&gt; + rol + ...&lt;br&gt;&lt;/b&gt;&lt;/font&gt;&lt;/b&gt;&lt;span style=&quot;font-size: 14px;&quot;&gt;&lt;b&gt;&lt;font color=&quot;#9933ff&quot;&gt;&lt;span style=&quot;white-space: pre;&quot;&gt;&#x9;&lt;/span&gt;C.Aj: rol&lt;/font&gt;&lt;br&gt;&lt;/b&gt;&lt;/span&gt;" style="text;strokeColor=none;fillColor=none;align=left;verticalAlign=middle;spacingLeft=4;spacingRight=4;overflow=hidden;points=[[0,0.5],[1,0.5]];portConstraint=eastwest;rotatable=0;whiteSpace=wrap;html=1;" parent="1" vertex="1">
          <mxGeometry x="-1561" y="612.5" width="129" height="53" as="geometry" />
        </mxCell>
        <mxCell id="xZixdrP6jCM3io9Tht9j-140" value="" style="endArrow=none;html=1;rounded=0;exitX=0.5;exitY=0;exitDx=0;exitDy=0;entryX=0.5;entryY=0;entryDx=0;entryDy=0;" parent="1" source="xZixdrP6jCM3io9Tht9j-135" target="xZixdrP6jCM3io9Tht9j-136" edge="1">
          <mxGeometry relative="1" as="geometry">
            <mxPoint x="-1502" y="592.5" as="sourcePoint" />
            <mxPoint x="-1462" y="592.5" as="targetPoint" />
            <Array as="points">
              <mxPoint x="-1537" y="526.5" />
              <mxPoint x="-1437" y="526.5" />
            </Array>
          </mxGeometry>
        </mxCell>
        <mxCell id="xZixdrP6jCM3io9Tht9j-141" value="1" style="resizable=0;html=1;whiteSpace=wrap;align=right;verticalAlign=bottom;" parent="xZixdrP6jCM3io9Tht9j-140" connectable="0" vertex="1">
          <mxGeometry x="1" relative="1" as="geometry" />
        </mxCell>
        <mxCell id="xZixdrP6jCM3io9Tht9j-142" value="rol" style="resizable=0;html=1;whiteSpace=wrap;align=right;verticalAlign=bottom;" parent="1" connectable="0" vertex="1">
          <mxGeometry x="-1476" y="527.5" as="geometry" />
        </mxCell>
        <mxCell id="xZixdrP6jCM3io9Tht9j-145" value="" style="endArrow=none;html=1;rounded=0;exitX=1;exitY=0.5;exitDx=0;exitDy=0;entryX=0;entryY=0.5;entryDx=0;entryDy=0;" parent="1" source="xZixdrP6jCM3io9Tht9j-135" target="xZixdrP6jCM3io9Tht9j-136" edge="1">
          <mxGeometry relative="1" as="geometry">
            <mxPoint x="-1502" y="406" as="sourcePoint" />
            <mxPoint x="-1462" y="406" as="targetPoint" />
          </mxGeometry>
        </mxCell>
        <mxCell id="xZixdrP6jCM3io9Tht9j-146" value="1" style="resizable=0;html=1;whiteSpace=wrap;align=right;verticalAlign=bottom;" parent="xZixdrP6jCM3io9Tht9j-145" connectable="0" vertex="1">
          <mxGeometry x="1" relative="1" as="geometry" />
        </mxCell>
        <mxCell id="xZixdrP6jCM3io9Tht9j-147" value="&lt;font style=&quot;font-size: 20px;&quot;&gt;&lt;b&gt;A&lt;/b&gt;&lt;/font&gt;" style="rounded=0;whiteSpace=wrap;html=1;fillColor=#d5e8d4;strokeColor=#82b366;" parent="1" vertex="1">
          <mxGeometry x="-1327" y="126" width="50" height="50" as="geometry" />
        </mxCell>
        <mxCell id="xZixdrP6jCM3io9Tht9j-148" value="&lt;font style=&quot;font-size: 20px;&quot;&gt;&lt;b&gt;R&lt;/b&gt;&lt;/font&gt;" style="shape=rhombus;perimeter=rhombusPerimeter;whiteSpace=wrap;html=1;align=center;fillColor=#f5f5f5;strokeColor=#666666;fontColor=#333333;" parent="1" vertex="1">
          <mxGeometry x="-1237" y="121" width="70" height="60" as="geometry" />
        </mxCell>
        <mxCell id="xZixdrP6jCM3io9Tht9j-149" value="" style="endArrow=none;html=1;rounded=0;exitX=1;exitY=0.5;exitDx=0;exitDy=0;entryX=0;entryY=0.5;entryDx=0;entryDy=0;" parent="1" source="xZixdrP6jCM3io9Tht9j-147" target="xZixdrP6jCM3io9Tht9j-148" edge="1">
          <mxGeometry relative="1" as="geometry">
            <mxPoint x="-1157" y="161" as="sourcePoint" />
            <mxPoint x="-1127" y="161" as="targetPoint" />
          </mxGeometry>
        </mxCell>
        <mxCell id="xZixdrP6jCM3io9Tht9j-150" value="N" style="resizable=0;html=1;whiteSpace=wrap;align=right;verticalAlign=bottom;" parent="xZixdrP6jCM3io9Tht9j-149" connectable="0" vertex="1">
          <mxGeometry x="1" relative="1" as="geometry" />
        </mxCell>
        <mxCell id="xZixdrP6jCM3io9Tht9j-151" value="&lt;font style=&quot;font-size: 14px;&quot;&gt;&lt;b style=&quot;border-color: var(--border-color);&quot;&gt;&lt;font style=&quot;font-size: 14px;&quot; color=&quot;#9933ff&quot;&gt;&lt;b style=&quot;border-color: var(--border-color);&quot;&gt;A = &lt;u style=&quot;&quot;&gt;a0&lt;/u&gt; + ...&lt;br&gt;&lt;/b&gt;&lt;/font&gt;&lt;/b&gt;&lt;b&gt;&lt;font style=&quot;font-size: 14px;&quot; color=&quot;#9933ff&quot;&gt;R = &lt;u&gt;a0+rol&lt;/u&gt;&amp;nbsp;+ ...&lt;br&gt;&lt;span style=&quot;white-space: pre;&quot;&gt;&#x9;&lt;/span&gt;C.Aj: a0, rol&lt;br&gt;&lt;/font&gt;&lt;/b&gt;&lt;b style=&quot;border-color: var(--border-color); color: rgb(153, 51, 255);&quot;&gt;&lt;font style=&quot;border-color: var(--border-color); font-size: 14px;&quot;&gt;&lt;span style=&quot;border-color: var(--border-color); line-height: 14.98px;&quot;&gt;ASERCIÓN 1:&lt;/span&gt;&lt;span style=&quot;border-color: var(--border-color); font-family: Arial, sans-serif;&quot;&gt;&amp;nbsp;A[a0]&amp;nbsp;&lt;/span&gt;&lt;span style=&quot;border-color: var(--border-color); font-family: &amp;quot;Cambria Math&amp;quot;, serif;&quot;&gt;⊆&lt;/span&gt;&lt;span style=&quot;border-color: var(--border-color); line-height: 14.98px;&quot;&gt;&amp;nbsp;R[rol]&lt;/span&gt;&lt;/font&gt;&lt;/b&gt;&lt;/font&gt;&lt;span style=&quot;font-size: 14px;&quot;&gt;&lt;b&gt;&lt;br&gt;&lt;/b&gt;&lt;/span&gt;" style="text;strokeColor=none;fillColor=none;align=left;verticalAlign=middle;spacingLeft=4;spacingRight=4;overflow=hidden;points=[[0,0.5],[1,0.5]];portConstraint=eastwest;rotatable=0;whiteSpace=wrap;html=1;" parent="1" vertex="1">
          <mxGeometry x="-1329" y="187" width="221" height="77" as="geometry" />
        </mxCell>
        <mxCell id="xZixdrP6jCM3io9Tht9j-154" value="rol" style="resizable=0;html=1;whiteSpace=wrap;align=right;verticalAlign=bottom;" parent="1" connectable="0" vertex="1">
          <mxGeometry x="-1241" y="92" as="geometry" />
        </mxCell>
        <mxCell id="xZixdrP6jCM3io9Tht9j-155" value="" style="shape=link;html=1;rounded=0;exitX=0.5;exitY=0;exitDx=0;exitDy=0;entryX=0.5;entryY=0;entryDx=0;entryDy=0;" parent="1" source="xZixdrP6jCM3io9Tht9j-147" target="xZixdrP6jCM3io9Tht9j-148" edge="1">
          <mxGeometry relative="1" as="geometry">
            <mxPoint x="-415" y="152" as="sourcePoint" />
            <mxPoint x="-375" y="152" as="targetPoint" />
            <Array as="points">
              <mxPoint x="-1302" y="94" />
              <mxPoint x="-1202" y="94" />
            </Array>
          </mxGeometry>
        </mxCell>
        <mxCell id="xZixdrP6jCM3io9Tht9j-156" value="N" style="resizable=0;html=1;whiteSpace=wrap;align=right;verticalAlign=bottom;" parent="xZixdrP6jCM3io9Tht9j-155" connectable="0" vertex="1">
          <mxGeometry x="1" relative="1" as="geometry" />
        </mxCell>
        <mxCell id="xZixdrP6jCM3io9Tht9j-165" value="&lt;font style=&quot;font-size: 20px;&quot;&gt;&lt;b&gt;A&lt;/b&gt;&lt;/font&gt;" style="rounded=0;whiteSpace=wrap;html=1;fillColor=#d5e8d4;strokeColor=#82b366;" parent="1" vertex="1">
          <mxGeometry x="-1093" y="129" width="50" height="50" as="geometry" />
        </mxCell>
        <mxCell id="xZixdrP6jCM3io9Tht9j-166" value="&lt;font style=&quot;font-size: 20px;&quot;&gt;&lt;b&gt;R&lt;/b&gt;&lt;/font&gt;" style="shape=rhombus;perimeter=rhombusPerimeter;whiteSpace=wrap;html=1;align=center;fillColor=#f5f5f5;strokeColor=#666666;fontColor=#333333;" parent="1" vertex="1">
          <mxGeometry x="-1003" y="124" width="70" height="60" as="geometry" />
        </mxCell>
        <mxCell id="xZixdrP6jCM3io9Tht9j-167" value="" style="endArrow=none;html=1;rounded=0;exitX=1;exitY=0.5;exitDx=0;exitDy=0;entryX=0;entryY=0.5;entryDx=0;entryDy=0;" parent="1" source="xZixdrP6jCM3io9Tht9j-165" target="xZixdrP6jCM3io9Tht9j-166" edge="1">
          <mxGeometry relative="1" as="geometry">
            <mxPoint x="-923" y="164" as="sourcePoint" />
            <mxPoint x="-893" y="164" as="targetPoint" />
          </mxGeometry>
        </mxCell>
        <mxCell id="xZixdrP6jCM3io9Tht9j-168" value="N" style="resizable=0;html=1;whiteSpace=wrap;align=right;verticalAlign=bottom;" parent="xZixdrP6jCM3io9Tht9j-167" connectable="0" vertex="1">
          <mxGeometry x="1" relative="1" as="geometry" />
        </mxCell>
        <mxCell id="xZixdrP6jCM3io9Tht9j-169" value="&lt;font style=&quot;font-size: 14px;&quot;&gt;&lt;b style=&quot;border-color: var(--border-color);&quot;&gt;&lt;font style=&quot;font-size: 14px;&quot; color=&quot;#9933ff&quot;&gt;&lt;b style=&quot;border-color: var(--border-color);&quot;&gt;A = &lt;u style=&quot;&quot;&gt;a0&lt;/u&gt; + ...&lt;br&gt;&lt;/b&gt;&lt;/font&gt;&lt;/b&gt;&lt;b&gt;&lt;font style=&quot;font-size: 14px;&quot; color=&quot;#9933ff&quot;&gt;R = &lt;u&gt;a0+rol&lt;/u&gt;&amp;nbsp;+ ...&lt;br&gt;&lt;span style=&quot;&quot;&gt;&lt;span style=&quot;white-space: pre;&quot;&gt;&amp;nbsp;&amp;nbsp;&amp;nbsp;&amp;nbsp;&lt;/span&gt;&lt;/span&gt;C.Aj: a0, rol&lt;br&gt;&lt;/font&gt;&lt;/b&gt;&lt;b style=&quot;border-color: var(--border-color); color: rgb(153, 51, 255);&quot;&gt;&lt;font style=&quot;border-color: var(--border-color); font-size: 14px;&quot;&gt;&lt;span style=&quot;border-color: var(--border-color); line-height: 14.98px;&quot;&gt;ASERCIÓN 1:&lt;/span&gt;&lt;span style=&quot;border-color: var(--border-color); font-family: Arial, sans-serif;&quot;&gt;&amp;nbsp;A[a0]&amp;nbsp;&lt;/span&gt;&lt;span style=&quot;border-color: var(--border-color); font-family: &amp;quot;Cambria Math&amp;quot;, serif;&quot;&gt;⊆&lt;/span&gt;&lt;span style=&quot;border-color: var(--border-color); line-height: 14.98px;&quot;&gt;&amp;nbsp;R[a0]&lt;br&gt;&lt;/span&gt;&lt;/font&gt;&lt;/b&gt;&lt;/font&gt;&lt;b style=&quot;border-color: var(--border-color); font-size: 14px; color: rgb(153, 51, 255);&quot;&gt;&lt;font style=&quot;border-color: var(--border-color);&quot;&gt;ASERCIÓN 2:&lt;span style=&quot;border-color: var(--border-color); font-family: Arial, sans-serif;&quot;&gt;&amp;nbsp;A[a0]&amp;nbsp;&lt;/span&gt;&lt;span style=&quot;border-color: var(--border-color); font-family: &amp;quot;Cambria Math&amp;quot;, serif;&quot;&gt;⊆&lt;/span&gt;&lt;span style=&quot;border-color: var(--border-color); line-height: 14.98px;&quot;&gt;&amp;nbsp;R[rol]&lt;/span&gt;&lt;/font&gt;&lt;/b&gt;&lt;span style=&quot;font-size: 14px;&quot;&gt;&lt;b&gt;&lt;br&gt;&lt;/b&gt;&lt;/span&gt;" style="text;strokeColor=none;fillColor=none;align=left;verticalAlign=middle;spacingLeft=4;spacingRight=4;overflow=hidden;points=[[0,0.5],[1,0.5]];portConstraint=eastwest;rotatable=0;whiteSpace=wrap;html=1;" parent="1" vertex="1">
          <mxGeometry x="-1095" y="190" width="221" height="94" as="geometry" />
        </mxCell>
        <mxCell id="xZixdrP6jCM3io9Tht9j-170" value="rol" style="resizable=0;html=1;whiteSpace=wrap;align=right;verticalAlign=bottom;" parent="1" connectable="0" vertex="1">
          <mxGeometry x="-1007" y="95" as="geometry" />
        </mxCell>
        <mxCell id="xZixdrP6jCM3io9Tht9j-171" value="" style="shape=link;html=1;rounded=0;exitX=0.5;exitY=0;exitDx=0;exitDy=0;entryX=0.5;entryY=0;entryDx=0;entryDy=0;" parent="1" source="xZixdrP6jCM3io9Tht9j-165" target="xZixdrP6jCM3io9Tht9j-166" edge="1">
          <mxGeometry relative="1" as="geometry">
            <mxPoint x="-181" y="155" as="sourcePoint" />
            <mxPoint x="-141" y="155" as="targetPoint" />
            <Array as="points">
              <mxPoint x="-1068" y="97" />
              <mxPoint x="-968" y="97" />
            </Array>
          </mxGeometry>
        </mxCell>
        <mxCell id="xZixdrP6jCM3io9Tht9j-172" value="N" style="resizable=0;html=1;whiteSpace=wrap;align=right;verticalAlign=bottom;" parent="xZixdrP6jCM3io9Tht9j-171" connectable="0" vertex="1">
          <mxGeometry x="1" relative="1" as="geometry" />
        </mxCell>
        <mxCell id="xZixdrP6jCM3io9Tht9j-173" value="&lt;font color=&quot;#ff3333&quot;&gt;&lt;b&gt;1 participación total&lt;/b&gt;&lt;/font&gt;" style="text;strokeColor=none;fillColor=none;align=left;verticalAlign=middle;spacingLeft=4;spacingRight=4;overflow=hidden;points=[[0,0.5],[1,0.5]];portConstraint=eastwest;rotatable=0;whiteSpace=wrap;html=1;" parent="1" vertex="1">
          <mxGeometry x="-1309" y="61" width="146" height="22" as="geometry" />
        </mxCell>
        <mxCell id="xZixdrP6jCM3io9Tht9j-174" value="&lt;font color=&quot;#ff3333&quot;&gt;&lt;b&gt;2 participaciones totales&lt;/b&gt;&lt;/font&gt;" style="text;strokeColor=none;fillColor=none;align=left;verticalAlign=middle;spacingLeft=4;spacingRight=4;overflow=hidden;points=[[0,0.5],[1,0.5]];portConstraint=eastwest;rotatable=0;whiteSpace=wrap;html=1;" parent="1" vertex="1">
          <mxGeometry x="-1090" y="61" width="158" height="22" as="geometry" />
        </mxCell>
        <mxCell id="xZixdrP6jCM3io9Tht9j-175" value="&lt;font style=&quot;font-size: 20px;&quot;&gt;&lt;b&gt;A&lt;/b&gt;&lt;/font&gt;" style="rounded=0;whiteSpace=wrap;html=1;fillColor=#d5e8d4;strokeColor=#82b366;" parent="1" vertex="1">
          <mxGeometry x="-1343" y="353" width="50" height="50" as="geometry" />
        </mxCell>
        <mxCell id="xZixdrP6jCM3io9Tht9j-176" value="&lt;font style=&quot;font-size: 20px;&quot;&gt;&lt;b&gt;R&lt;/b&gt;&lt;/font&gt;" style="shape=rhombus;perimeter=rhombusPerimeter;whiteSpace=wrap;html=1;align=center;fillColor=#f5f5f5;strokeColor=#666666;fontColor=#333333;" parent="1" vertex="1">
          <mxGeometry x="-1253" y="348" width="70" height="60" as="geometry" />
        </mxCell>
        <mxCell id="xZixdrP6jCM3io9Tht9j-177" value="" style="endArrow=none;html=1;rounded=0;exitX=1;exitY=0.5;exitDx=0;exitDy=0;entryX=0;entryY=0.5;entryDx=0;entryDy=0;" parent="1" source="xZixdrP6jCM3io9Tht9j-175" target="xZixdrP6jCM3io9Tht9j-176" edge="1">
          <mxGeometry relative="1" as="geometry">
            <mxPoint x="-1173" y="388" as="sourcePoint" />
            <mxPoint x="-1143" y="388" as="targetPoint" />
          </mxGeometry>
        </mxCell>
        <mxCell id="xZixdrP6jCM3io9Tht9j-178" value="1" style="resizable=0;html=1;whiteSpace=wrap;align=right;verticalAlign=bottom;" parent="xZixdrP6jCM3io9Tht9j-177" connectable="0" vertex="1">
          <mxGeometry x="1" relative="1" as="geometry" />
        </mxCell>
        <mxCell id="xZixdrP6jCM3io9Tht9j-180" value="rol" style="resizable=0;html=1;whiteSpace=wrap;align=right;verticalAlign=bottom;" parent="1" connectable="0" vertex="1">
          <mxGeometry x="-1257" y="319" as="geometry" />
        </mxCell>
        <mxCell id="xZixdrP6jCM3io9Tht9j-181" value="" style="shape=link;html=1;rounded=0;exitX=0.5;exitY=0;exitDx=0;exitDy=0;entryX=0.5;entryY=0;entryDx=0;entryDy=0;" parent="1" source="xZixdrP6jCM3io9Tht9j-175" target="xZixdrP6jCM3io9Tht9j-176" edge="1">
          <mxGeometry relative="1" as="geometry">
            <mxPoint x="-431" y="379" as="sourcePoint" />
            <mxPoint x="-391" y="379" as="targetPoint" />
            <Array as="points">
              <mxPoint x="-1318" y="321" />
              <mxPoint x="-1218" y="321" />
            </Array>
          </mxGeometry>
        </mxCell>
        <mxCell id="xZixdrP6jCM3io9Tht9j-182" value="N" style="resizable=0;html=1;whiteSpace=wrap;align=right;verticalAlign=bottom;" parent="xZixdrP6jCM3io9Tht9j-181" connectable="0" vertex="1">
          <mxGeometry x="1" relative="1" as="geometry" />
        </mxCell>
        <mxCell id="xZixdrP6jCM3io9Tht9j-183" value="&lt;font style=&quot;font-size: 20px;&quot;&gt;&lt;b&gt;A&lt;/b&gt;&lt;/font&gt;" style="rounded=0;whiteSpace=wrap;html=1;fillColor=#d5e8d4;strokeColor=#82b366;" parent="1" vertex="1">
          <mxGeometry x="-1109" y="356" width="50" height="50" as="geometry" />
        </mxCell>
        <mxCell id="xZixdrP6jCM3io9Tht9j-184" value="&lt;font style=&quot;font-size: 20px;&quot;&gt;&lt;b&gt;R&lt;/b&gt;&lt;/font&gt;" style="shape=rhombus;perimeter=rhombusPerimeter;whiteSpace=wrap;html=1;align=center;fillColor=#f5f5f5;strokeColor=#666666;fontColor=#333333;" parent="1" vertex="1">
          <mxGeometry x="-1019" y="351" width="70" height="60" as="geometry" />
        </mxCell>
        <mxCell id="xZixdrP6jCM3io9Tht9j-185" value="" style="endArrow=none;html=1;rounded=0;exitX=1;exitY=0.5;exitDx=0;exitDy=0;entryX=0;entryY=0.5;entryDx=0;entryDy=0;" parent="1" source="xZixdrP6jCM3io9Tht9j-183" target="xZixdrP6jCM3io9Tht9j-184" edge="1">
          <mxGeometry relative="1" as="geometry">
            <mxPoint x="-939" y="391" as="sourcePoint" />
            <mxPoint x="-909" y="391" as="targetPoint" />
          </mxGeometry>
        </mxCell>
        <mxCell id="xZixdrP6jCM3io9Tht9j-186" value="N" style="resizable=0;html=1;whiteSpace=wrap;align=right;verticalAlign=bottom;" parent="xZixdrP6jCM3io9Tht9j-185" connectable="0" vertex="1">
          <mxGeometry x="1" relative="1" as="geometry" />
        </mxCell>
        <mxCell id="xZixdrP6jCM3io9Tht9j-188" value="rol" style="resizable=0;html=1;whiteSpace=wrap;align=right;verticalAlign=bottom;" parent="1" connectable="0" vertex="1">
          <mxGeometry x="-1023" y="322" as="geometry" />
        </mxCell>
        <mxCell id="xZixdrP6jCM3io9Tht9j-189" value="" style="shape=link;html=1;rounded=0;exitX=0.5;exitY=0;exitDx=0;exitDy=0;entryX=0.5;entryY=0;entryDx=0;entryDy=0;" parent="1" source="xZixdrP6jCM3io9Tht9j-183" target="xZixdrP6jCM3io9Tht9j-184" edge="1">
          <mxGeometry relative="1" as="geometry">
            <mxPoint x="-197" y="382" as="sourcePoint" />
            <mxPoint x="-157" y="382" as="targetPoint" />
            <Array as="points">
              <mxPoint x="-1084" y="324" />
              <mxPoint x="-984" y="324" />
            </Array>
          </mxGeometry>
        </mxCell>
        <mxCell id="xZixdrP6jCM3io9Tht9j-190" value="1" style="resizable=0;html=1;whiteSpace=wrap;align=right;verticalAlign=bottom;" parent="xZixdrP6jCM3io9Tht9j-189" connectable="0" vertex="1">
          <mxGeometry x="1" relative="1" as="geometry" />
        </mxCell>
        <mxCell id="xZixdrP6jCM3io9Tht9j-191" value="&lt;font color=&quot;#ff3333&quot;&gt;&lt;b&gt;1 participación total en N&lt;/b&gt;&lt;/font&gt;" style="text;strokeColor=none;fillColor=none;align=left;verticalAlign=middle;spacingLeft=4;spacingRight=4;overflow=hidden;points=[[0,0.5],[1,0.5]];portConstraint=eastwest;rotatable=0;whiteSpace=wrap;html=1;" parent="1" vertex="1">
          <mxGeometry x="-1341" y="288" width="154" height="22" as="geometry" />
        </mxCell>
        <mxCell id="xZixdrP6jCM3io9Tht9j-193" value="&lt;font style=&quot;font-size: 20px;&quot;&gt;&lt;b&gt;A&lt;/b&gt;&lt;/font&gt;" style="rounded=0;whiteSpace=wrap;html=1;fillColor=#d5e8d4;strokeColor=#82b366;" parent="1" vertex="1">
          <mxGeometry x="-1353" y="559.5" width="50" height="50" as="geometry" />
        </mxCell>
        <mxCell id="xZixdrP6jCM3io9Tht9j-194" value="&lt;font style=&quot;font-size: 20px;&quot;&gt;&lt;b&gt;R&lt;/b&gt;&lt;/font&gt;" style="shape=rhombus;perimeter=rhombusPerimeter;whiteSpace=wrap;html=1;align=center;fillColor=#f5f5f5;strokeColor=#666666;fontColor=#333333;" parent="1" vertex="1">
          <mxGeometry x="-1263" y="554.5" width="70" height="60" as="geometry" />
        </mxCell>
        <mxCell id="xZixdrP6jCM3io9Tht9j-195" value="" style="endArrow=none;html=1;rounded=0;exitX=1;exitY=0.5;exitDx=0;exitDy=0;entryX=0;entryY=0.5;entryDx=0;entryDy=0;" parent="1" source="xZixdrP6jCM3io9Tht9j-193" target="xZixdrP6jCM3io9Tht9j-194" edge="1">
          <mxGeometry relative="1" as="geometry">
            <mxPoint x="-1183" y="594.5" as="sourcePoint" />
            <mxPoint x="-1153" y="594.5" as="targetPoint" />
          </mxGeometry>
        </mxCell>
        <mxCell id="xZixdrP6jCM3io9Tht9j-196" value="1" style="resizable=0;html=1;whiteSpace=wrap;align=right;verticalAlign=bottom;" parent="xZixdrP6jCM3io9Tht9j-195" connectable="0" vertex="1">
          <mxGeometry x="1" relative="1" as="geometry" />
        </mxCell>
        <mxCell id="xZixdrP6jCM3io9Tht9j-197" value="&lt;font style=&quot;font-size: 14px;&quot;&gt;&lt;b style=&quot;border-color: var(--border-color);&quot;&gt;&lt;font style=&quot;font-size: 14px;&quot; color=&quot;#9933ff&quot;&gt;&lt;b style=&quot;border-color: var(--border-color);&quot;&gt;A = &lt;u style=&quot;&quot;&gt;a0&lt;/u&gt; + rol + ...&lt;br&gt;&lt;/b&gt;&lt;/font&gt;&lt;/b&gt;&lt;b&gt;&lt;font style=&quot;font-size: 14px;&quot; color=&quot;#9933ff&quot;&gt;&lt;span style=&quot;&quot;&gt;&lt;span style=&quot;white-space: pre;&quot;&gt;&amp;nbsp;&amp;nbsp;&amp;nbsp;&amp;nbsp;&lt;/span&gt;&lt;/span&gt;C.Aj: rol&lt;br&gt;&lt;span style=&quot;&quot;&gt;&lt;span style=&quot;white-space: pre;&quot;&gt;&amp;nbsp;&amp;nbsp;&amp;nbsp;&amp;nbsp;&lt;/span&gt;&lt;/span&gt;&lt;/font&gt;&lt;/b&gt;&lt;b style=&quot;border-color: var(--border-color);&quot;&gt;&lt;font style=&quot;border-color: var(--border-color);&quot; color=&quot;#9933ff&quot;&gt;&lt;font style=&quot;border-color: var(--border-color);&quot;&gt;NotNull: rol&lt;/font&gt;&lt;/font&gt;&lt;/b&gt;&lt;/font&gt;&lt;span style=&quot;font-size: 14px;&quot;&gt;&lt;b&gt;&lt;br&gt;&lt;/b&gt;&lt;/span&gt;" style="text;strokeColor=none;fillColor=none;align=left;verticalAlign=middle;spacingLeft=4;spacingRight=4;overflow=hidden;points=[[0,0.5],[1,0.5]];portConstraint=eastwest;rotatable=0;whiteSpace=wrap;html=1;" parent="1" vertex="1">
          <mxGeometry x="-1355" y="620.5" width="120" height="53.5" as="geometry" />
        </mxCell>
        <mxCell id="xZixdrP6jCM3io9Tht9j-198" value="rol" style="resizable=0;html=1;whiteSpace=wrap;align=right;verticalAlign=bottom;" parent="1" connectable="0" vertex="1">
          <mxGeometry x="-1267" y="525.5" as="geometry" />
        </mxCell>
        <mxCell id="xZixdrP6jCM3io9Tht9j-199" value="" style="shape=link;html=1;rounded=0;exitX=0.5;exitY=0;exitDx=0;exitDy=0;entryX=0.5;entryY=0;entryDx=0;entryDy=0;" parent="1" source="xZixdrP6jCM3io9Tht9j-193" target="xZixdrP6jCM3io9Tht9j-194" edge="1">
          <mxGeometry relative="1" as="geometry">
            <mxPoint x="-441" y="585.5" as="sourcePoint" />
            <mxPoint x="-401" y="585.5" as="targetPoint" />
            <Array as="points">
              <mxPoint x="-1328" y="527.5" />
              <mxPoint x="-1228" y="527.5" />
            </Array>
          </mxGeometry>
        </mxCell>
        <mxCell id="xZixdrP6jCM3io9Tht9j-200" value="1" style="resizable=0;html=1;whiteSpace=wrap;align=right;verticalAlign=bottom;" parent="xZixdrP6jCM3io9Tht9j-199" connectable="0" vertex="1">
          <mxGeometry x="1" relative="1" as="geometry" />
        </mxCell>
        <mxCell id="xZixdrP6jCM3io9Tht9j-201" value="&lt;font style=&quot;font-size: 20px;&quot;&gt;&lt;b&gt;A&lt;/b&gt;&lt;/font&gt;" style="rounded=0;whiteSpace=wrap;html=1;fillColor=#d5e8d4;strokeColor=#82b366;" parent="1" vertex="1">
          <mxGeometry x="-1119" y="562.5" width="50" height="50" as="geometry" />
        </mxCell>
        <mxCell id="xZixdrP6jCM3io9Tht9j-202" value="&lt;font style=&quot;font-size: 20px;&quot;&gt;&lt;b&gt;R&lt;/b&gt;&lt;/font&gt;" style="shape=rhombus;perimeter=rhombusPerimeter;whiteSpace=wrap;html=1;align=center;fillColor=#f5f5f5;strokeColor=#666666;fontColor=#333333;" parent="1" vertex="1">
          <mxGeometry x="-1029" y="557.5" width="70" height="60" as="geometry" />
        </mxCell>
        <mxCell id="xZixdrP6jCM3io9Tht9j-203" value="" style="endArrow=none;html=1;rounded=0;exitX=1;exitY=0.5;exitDx=0;exitDy=0;entryX=0;entryY=0.5;entryDx=0;entryDy=0;" parent="1" source="xZixdrP6jCM3io9Tht9j-201" target="xZixdrP6jCM3io9Tht9j-202" edge="1">
          <mxGeometry relative="1" as="geometry">
            <mxPoint x="-949" y="597.5" as="sourcePoint" />
            <mxPoint x="-919" y="597.5" as="targetPoint" />
          </mxGeometry>
        </mxCell>
        <mxCell id="xZixdrP6jCM3io9Tht9j-204" value="1" style="resizable=0;html=1;whiteSpace=wrap;align=right;verticalAlign=bottom;" parent="xZixdrP6jCM3io9Tht9j-203" connectable="0" vertex="1">
          <mxGeometry x="1" relative="1" as="geometry" />
        </mxCell>
        <mxCell id="xZixdrP6jCM3io9Tht9j-205" value="&lt;font style=&quot;font-size: 14px;&quot;&gt;&lt;b style=&quot;border-color: var(--border-color);&quot;&gt;&lt;font style=&quot;font-size: 14px;&quot; color=&quot;#9933ff&quot;&gt;&lt;b style=&quot;border-color: var(--border-color);&quot;&gt;A = &lt;u style=&quot;&quot;&gt;a0&lt;/u&gt; + rol + ...&lt;br&gt;&lt;/b&gt;&lt;/font&gt;&lt;/b&gt;&lt;b&gt;&lt;font style=&quot;font-size: 14px;&quot; color=&quot;#9933ff&quot;&gt;&lt;span style=&quot;&quot;&gt;&lt;span style=&quot;white-space: pre;&quot;&gt;&amp;nbsp;&amp;nbsp;&amp;nbsp;&amp;nbsp;&lt;/span&gt;&lt;/span&gt;C.Aj: rol&lt;br&gt;&lt;/font&gt;&lt;/b&gt;&lt;/font&gt;&lt;b style=&quot;border-color: var(--border-color); font-size: 14px; color: rgb(153, 51, 255);&quot;&gt;&lt;font style=&quot;border-color: var(--border-color);&quot;&gt;ASERCIÓN 1:&lt;span style=&quot;border-color: var(--border-color); font-family: Arial, sans-serif;&quot;&gt;&amp;nbsp;A[a0]&amp;nbsp;&lt;/span&gt;&lt;span style=&quot;border-color: var(--border-color); font-family: &amp;quot;Cambria Math&amp;quot;, serif;&quot;&gt;⊆&lt;/span&gt;&lt;span style=&quot;border-color: var(--border-color); line-height: 14.98px;&quot;&gt;&amp;nbsp;A[rol]&lt;/span&gt;&lt;/font&gt;&lt;/b&gt;&lt;span style=&quot;font-size: 14px;&quot;&gt;&lt;b&gt;&lt;br&gt;&lt;/b&gt;&lt;/span&gt;" style="text;strokeColor=none;fillColor=none;align=left;verticalAlign=middle;spacingLeft=4;spacingRight=4;overflow=hidden;points=[[0,0.5],[1,0.5]];portConstraint=eastwest;rotatable=0;whiteSpace=wrap;html=1;" parent="1" vertex="1">
          <mxGeometry x="-1121" y="623.5" width="221" height="77" as="geometry" />
        </mxCell>
        <mxCell id="xZixdrP6jCM3io9Tht9j-206" value="rol" style="resizable=0;html=1;whiteSpace=wrap;align=right;verticalAlign=bottom;" parent="1" connectable="0" vertex="1">
          <mxGeometry x="-1033" y="528.5" as="geometry" />
        </mxCell>
        <mxCell id="xZixdrP6jCM3io9Tht9j-207" value="" style="shape=link;html=1;rounded=0;exitX=0.5;exitY=0;exitDx=0;exitDy=0;entryX=0.5;entryY=0;entryDx=0;entryDy=0;" parent="1" source="xZixdrP6jCM3io9Tht9j-201" target="xZixdrP6jCM3io9Tht9j-202" edge="1">
          <mxGeometry relative="1" as="geometry">
            <mxPoint x="-207" y="588.5" as="sourcePoint" />
            <mxPoint x="-167" y="588.5" as="targetPoint" />
            <Array as="points">
              <mxPoint x="-1094" y="530.5" />
              <mxPoint x="-994" y="530.5" />
            </Array>
          </mxGeometry>
        </mxCell>
        <mxCell id="xZixdrP6jCM3io9Tht9j-208" value="1" style="resizable=0;html=1;whiteSpace=wrap;align=right;verticalAlign=bottom;" parent="xZixdrP6jCM3io9Tht9j-207" connectable="0" vertex="1">
          <mxGeometry x="1" relative="1" as="geometry" />
        </mxCell>
        <mxCell id="xZixdrP6jCM3io9Tht9j-209" value="&lt;font color=&quot;#ff3333&quot;&gt;&lt;b&gt;1 participación total&lt;/b&gt;&lt;/font&gt;" style="text;strokeColor=none;fillColor=none;align=left;verticalAlign=middle;spacingLeft=4;spacingRight=4;overflow=hidden;points=[[0,0.5],[1,0.5]];portConstraint=eastwest;rotatable=0;whiteSpace=wrap;html=1;" parent="1" vertex="1">
          <mxGeometry x="-1335" y="494.5" width="146" height="22" as="geometry" />
        </mxCell>
        <mxCell id="xZixdrP6jCM3io9Tht9j-210" value="&lt;font color=&quot;#ff3333&quot;&gt;&lt;b&gt;2 participaciones totales&lt;/b&gt;&lt;/font&gt;" style="text;strokeColor=none;fillColor=none;align=left;verticalAlign=middle;spacingLeft=4;spacingRight=4;overflow=hidden;points=[[0,0.5],[1,0.5]];portConstraint=eastwest;rotatable=0;whiteSpace=wrap;html=1;" parent="1" vertex="1">
          <mxGeometry x="-1116" y="494.5" width="158" height="22" as="geometry" />
        </mxCell>
        <mxCell id="xZixdrP6jCM3io9Tht9j-211" value="&lt;font style=&quot;font-size: 20px;&quot;&gt;&lt;b&gt;A&lt;/b&gt;&lt;/font&gt;" style="rounded=0;whiteSpace=wrap;html=1;fillColor=#d5e8d4;strokeColor=#82b366;" parent="1" vertex="1">
          <mxGeometry x="-884" y="356.5" width="50" height="50" as="geometry" />
        </mxCell>
        <mxCell id="xZixdrP6jCM3io9Tht9j-212" value="&lt;font style=&quot;font-size: 20px;&quot;&gt;&lt;b&gt;R&lt;/b&gt;&lt;/font&gt;" style="shape=rhombus;perimeter=rhombusPerimeter;whiteSpace=wrap;html=1;align=center;fillColor=#f5f5f5;strokeColor=#666666;fontColor=#333333;" parent="1" vertex="1">
          <mxGeometry x="-794" y="351.5" width="70" height="60" as="geometry" />
        </mxCell>
        <mxCell id="xZixdrP6jCM3io9Tht9j-213" value="" style="endArrow=none;html=1;rounded=0;exitX=1;exitY=0.5;exitDx=0;exitDy=0;entryX=0;entryY=0.5;entryDx=0;entryDy=0;" parent="1" source="xZixdrP6jCM3io9Tht9j-211" target="xZixdrP6jCM3io9Tht9j-212" edge="1">
          <mxGeometry relative="1" as="geometry">
            <mxPoint x="-714" y="391.5" as="sourcePoint" />
            <mxPoint x="-684" y="391.5" as="targetPoint" />
          </mxGeometry>
        </mxCell>
        <mxCell id="xZixdrP6jCM3io9Tht9j-214" value="N" style="resizable=0;html=1;whiteSpace=wrap;align=right;verticalAlign=bottom;" parent="xZixdrP6jCM3io9Tht9j-213" connectable="0" vertex="1">
          <mxGeometry x="1" relative="1" as="geometry" />
        </mxCell>
        <mxCell id="xZixdrP6jCM3io9Tht9j-216" value="rol" style="resizable=0;html=1;whiteSpace=wrap;align=right;verticalAlign=bottom;" parent="1" connectable="0" vertex="1">
          <mxGeometry x="-798" y="322.5" as="geometry" />
        </mxCell>
        <mxCell id="xZixdrP6jCM3io9Tht9j-217" value="" style="shape=link;html=1;rounded=0;exitX=0.5;exitY=0;exitDx=0;exitDy=0;entryX=0.5;entryY=0;entryDx=0;entryDy=0;" parent="1" source="xZixdrP6jCM3io9Tht9j-211" target="xZixdrP6jCM3io9Tht9j-212" edge="1">
          <mxGeometry relative="1" as="geometry">
            <mxPoint x="28" y="382.5" as="sourcePoint" />
            <mxPoint x="68" y="382.5" as="targetPoint" />
            <Array as="points">
              <mxPoint x="-859" y="324.5" />
              <mxPoint x="-759" y="324.5" />
            </Array>
          </mxGeometry>
        </mxCell>
        <mxCell id="xZixdrP6jCM3io9Tht9j-218" value="1" style="resizable=0;html=1;whiteSpace=wrap;align=right;verticalAlign=bottom;" parent="xZixdrP6jCM3io9Tht9j-217" connectable="0" vertex="1">
          <mxGeometry x="1" relative="1" as="geometry" />
        </mxCell>
        <mxCell id="xZixdrP6jCM3io9Tht9j-220" value="&lt;font color=&quot;#ff3333&quot;&gt;&lt;b&gt;1 participación total en 1&lt;/b&gt;&lt;/font&gt;" style="text;strokeColor=none;fillColor=none;align=left;verticalAlign=middle;spacingLeft=4;spacingRight=4;overflow=hidden;points=[[0,0.5],[1,0.5]];portConstraint=eastwest;rotatable=0;whiteSpace=wrap;html=1;" parent="1" vertex="1">
          <mxGeometry x="-1121" y="288" width="154" height="22" as="geometry" />
        </mxCell>
        <mxCell id="xZixdrP6jCM3io9Tht9j-221" value="&lt;font color=&quot;#ff3333&quot;&gt;&lt;b&gt;1 participación total en ambos&lt;/b&gt;&lt;/font&gt;" style="text;strokeColor=none;fillColor=none;align=left;verticalAlign=middle;spacingLeft=4;spacingRight=4;overflow=hidden;points=[[0,0.5],[1,0.5]];portConstraint=eastwest;rotatable=0;whiteSpace=wrap;html=1;" parent="1" vertex="1">
          <mxGeometry x="-892.5" y="288" width="189" height="22" as="geometry" />
        </mxCell>
        <mxCell id="xZixdrP6jCM3io9Tht9j-222" value="&lt;font style=&quot;font-size: 14px;&quot;&gt;&lt;b style=&quot;border-color: var(--border-color);&quot;&gt;&lt;font style=&quot;font-size: 14px;&quot; color=&quot;#9933ff&quot;&gt;&lt;b style=&quot;border-color: var(--border-color);&quot;&gt;A = &lt;u style=&quot;&quot;&gt;a0&lt;/u&gt; + rol + ...&lt;br&gt;&lt;/b&gt;&lt;/font&gt;&lt;/b&gt;&lt;b&gt;&lt;font style=&quot;font-size: 14px;&quot; color=&quot;#9933ff&quot;&gt;&lt;span style=&quot;&quot;&gt;&lt;span style=&quot;white-space: pre;&quot;&gt;&amp;nbsp;&amp;nbsp;&amp;nbsp;&amp;nbsp;&lt;/span&gt;&lt;/span&gt;C.Aj: rol&lt;br&gt;&lt;span style=&quot;&quot;&gt;&lt;span style=&quot;white-space: pre;&quot;&gt;&amp;nbsp;&amp;nbsp;&amp;nbsp;&amp;nbsp;&lt;/span&gt;&lt;/span&gt;&lt;/font&gt;&lt;/b&gt;&lt;b style=&quot;border-color: var(--border-color);&quot;&gt;&lt;font style=&quot;border-color: var(--border-color);&quot; color=&quot;#9933ff&quot;&gt;&lt;font style=&quot;border-color: var(--border-color);&quot;&gt;NotNull: rol&lt;/font&gt;&lt;/font&gt;&lt;/b&gt;&lt;/font&gt;&lt;span style=&quot;font-size: 14px;&quot;&gt;&lt;b&gt;&lt;br&gt;&lt;/b&gt;&lt;/span&gt;" style="text;strokeColor=none;fillColor=none;align=left;verticalAlign=middle;spacingLeft=4;spacingRight=4;overflow=hidden;points=[[0,0.5],[1,0.5]];portConstraint=eastwest;rotatable=0;whiteSpace=wrap;html=1;" parent="1" vertex="1">
          <mxGeometry x="-1343" y="417" width="120" height="53.5" as="geometry" />
        </mxCell>
        <mxCell id="xZixdrP6jCM3io9Tht9j-223" value="&lt;font style=&quot;font-size: 14px;&quot;&gt;&lt;b style=&quot;border-color: var(--border-color);&quot;&gt;&lt;font style=&quot;font-size: 14px;&quot; color=&quot;#9933ff&quot;&gt;&lt;b style=&quot;border-color: var(--border-color);&quot;&gt;A = &lt;u style=&quot;&quot;&gt;a0&lt;/u&gt; + rol + ...&lt;br&gt;&lt;/b&gt;&lt;/font&gt;&lt;/b&gt;&lt;b&gt;&lt;font style=&quot;font-size: 14px;&quot; color=&quot;#9933ff&quot;&gt;&lt;span style=&quot;&quot;&gt;&lt;span style=&quot;white-space: pre;&quot;&gt;&amp;nbsp;&amp;nbsp;&amp;nbsp;&amp;nbsp;&lt;/span&gt;&lt;/span&gt;C.Aj: rol&lt;br&gt;&lt;/font&gt;&lt;/b&gt;&lt;/font&gt;&lt;b style=&quot;border-color: var(--border-color); font-size: 14px; color: rgb(153, 51, 255);&quot;&gt;&lt;font style=&quot;border-color: var(--border-color);&quot;&gt;ASERCIÓN 1:&lt;span style=&quot;border-color: var(--border-color); font-family: Arial, sans-serif;&quot;&gt;&amp;nbsp;A[a0]&amp;nbsp;&lt;/span&gt;&lt;span style=&quot;border-color: var(--border-color); font-family: &amp;quot;Cambria Math&amp;quot;, serif;&quot;&gt;⊆&lt;/span&gt;&lt;span style=&quot;border-color: var(--border-color); line-height: 14.98px;&quot;&gt;&amp;nbsp;A[rol]&lt;/span&gt;&lt;/font&gt;&lt;/b&gt;&lt;span style=&quot;font-size: 14px;&quot;&gt;&lt;b&gt;&lt;br&gt;&lt;/b&gt;&lt;/span&gt;" style="text;strokeColor=none;fillColor=none;align=left;verticalAlign=middle;spacingLeft=4;spacingRight=4;overflow=hidden;points=[[0,0.5],[1,0.5]];portConstraint=eastwest;rotatable=0;whiteSpace=wrap;html=1;" parent="1" vertex="1">
          <mxGeometry x="-1114.25" y="417.5" width="206.5" height="61" as="geometry" />
        </mxCell>
        <mxCell id="xZixdrP6jCM3io9Tht9j-224" value="&lt;font style=&quot;font-size: 14px;&quot;&gt;&lt;b style=&quot;border-color: var(--border-color);&quot;&gt;&lt;font style=&quot;font-size: 14px;&quot; color=&quot;#9933ff&quot;&gt;&lt;b style=&quot;border-color: var(--border-color);&quot;&gt;A = &lt;u style=&quot;&quot;&gt;a0&lt;/u&gt; + rol + ...&lt;br&gt;&lt;/b&gt;&lt;/font&gt;&lt;/b&gt;&lt;b&gt;&lt;font style=&quot;font-size: 14px;&quot; color=&quot;#9933ff&quot;&gt;&lt;span style=&quot;&quot;&gt;&lt;span style=&quot;&quot;&gt;&amp;nbsp;&amp;nbsp;&amp;nbsp;&amp;nbsp;&lt;/span&gt;&lt;/span&gt;C.Aj: rol&lt;br&gt;&lt;span style=&quot;&quot;&gt;&lt;span style=&quot;&quot;&gt;&amp;nbsp;&amp;nbsp;&amp;nbsp;&amp;nbsp;&lt;/span&gt;&lt;/span&gt;&lt;/font&gt;&lt;/b&gt;&lt;b style=&quot;border-color: var(--border-color);&quot;&gt;&lt;font style=&quot;border-color: var(--border-color);&quot; color=&quot;#9933ff&quot;&gt;&lt;font style=&quot;border-color: var(--border-color);&quot;&gt;NotNull: rol&lt;br&gt;&lt;/font&gt;&lt;/font&gt;&lt;/b&gt;&lt;/font&gt;&lt;b style=&quot;border-color: var(--border-color); font-size: 14px; color: rgb(153, 51, 255);&quot;&gt;&lt;font style=&quot;border-color: var(--border-color);&quot;&gt;ASERCIÓN 1:&amp;nbsp;A[a0]&amp;nbsp;&lt;span style=&quot;border-color: var(--border-color); font-family: &amp;quot;Cambria Math&amp;quot;, serif;&quot;&gt;⊆&lt;/span&gt;&lt;span style=&quot;border-color: var(--border-color); line-height: 14.98px;&quot;&gt;&amp;nbsp;A[rol]&lt;/span&gt;&lt;/font&gt;&lt;/b&gt;&lt;span style=&quot;font-size: 14px;&quot;&gt;&lt;b&gt;&lt;br&gt;&lt;/b&gt;&lt;/span&gt;" style="text;strokeColor=none;fillColor=none;align=left;verticalAlign=middle;spacingLeft=4;spacingRight=4;overflow=hidden;points=[[0,0.5],[1,0.5]];portConstraint=eastwest;rotatable=0;whiteSpace=wrap;html=1;" parent="1" vertex="1">
          <mxGeometry x="-885" y="421" width="203" height="69" as="geometry" />
        </mxCell>
      </root>
    </mxGraphModel>
  </diagram>
</mxfile>
